<svg width="134" height="134" viewBox="0 0 134 134" fill="none" xmlns="http://www.w3.org/2000/svg">
<path d="M54.793 64.1123C59.2692 60.6187 62.1551 55.1786 62.1551 49.074C62.1551 38.5564 53.5987 30 43.0817 30H13.7986C11.7002 30 10 31.7008 10 33.7986V98.9181C10 101.016 11.7002 102.717 13.7986 102.717H43.0817C54.7074 102.717 64.1654 93.2592 64.1654 81.635C64.1654 74.3392 60.4402 67.8988 54.793 64.1123ZM43.0817 37.5972C49.4096 37.5972 54.558 42.746 54.558 49.074C54.558 55.4019 49.4096 60.5503 43.0817 60.5503H17.5972V37.5972H43.0817ZM43.0817 95.1195H17.5972V68.1475H43.0817C50.5183 68.1475 56.5682 74.1979 56.5682 81.6345C56.5682 89.0701 50.5183 95.1195 43.0817 95.1195Z" fill="white"/>
<path d="M96.6991 47.0859C81.3614 47.0859 68.8828 59.5641 68.8828 74.9023C68.8828 90.2405 81.3614 102.719 96.6991 102.719C104.129 102.719 111.115 99.8251 116.369 94.5708C117.853 93.0874 117.853 90.6826 116.369 89.1991C114.886 87.7157 112.48 87.7157 110.997 89.1991C107.177 93.018 102.1 95.1214 96.6991 95.1214C86.8491 95.1214 78.6259 88.0393 76.8431 78.7008H120.717C122.816 78.7008 124.516 77.0001 124.516 74.9023C124.516 59.5641 112.037 47.0859 96.6991 47.0859ZM96.6991 54.6831C106.549 54.6831 114.772 61.7647 116.556 71.1037H76.8431C78.6259 61.7647 86.8491 54.6831 96.6991 54.6831Z" fill="white"/>
<path d="M79.6052 39.6089H111.763C113.861 39.6089 115.562 37.9081 115.562 35.8103C115.562 33.7125 113.861 32.0117 111.763 32.0117H79.6052C77.5069 32.0117 75.8066 33.7125 75.8066 35.8103C75.8066 37.9081 77.5069 39.6089 79.6052 39.6089Z" fill="white"/>
</svg>
