<svg width="134" height="134" viewBox="0 0 134 134" fill="none" xmlns="http://www.w3.org/2000/svg">
<path d="M39.5547 19.6113C42.133 19.6113 44.556 20.6803 46.6016 22.6826C47.92 23.9041 49.2568 25.2593 50.5293 26.5703C51.1847 27.245 51.8183 27.8983 52.4902 28.5703L58.2314 34.3115C60.3906 36.4509 61.5459 38.955 61.5459 41.5254C61.5459 44.097 60.3708 46.5999 58.2334 48.7373C57.6356 49.3351 57.0404 49.9307 56.4648 50.5254L56.4639 50.5264C54.8885 52.1388 53.2513 53.7919 51.5088 55.3809C52.777 58.241 54.5776 61.0746 57.2422 64.4473H57.2412C62.6717 71.1052 68.3447 76.2768 74.585 80.2393L74.5859 80.2402C75.2029 80.6328 75.8998 80.9904 76.6709 81.376C77.2037 81.6424 77.7731 81.9294 78.3369 82.2432L85.0283 75.5518C87.1111 73.469 89.5768 72.3359 92.1641 72.3359C94.7496 72.336 97.1955 73.4682 99.2217 75.5713L110.804 87.1533C112.937 89.2865 114.024 91.7761 114.029 94.3047C114.034 96.6743 113.088 99.0385 111.231 101.137L110.848 101.553C109.956 102.483 109.027 103.393 108.119 104.262C106.791 105.551 105.542 106.743 104.445 108.063C104.406 108.125 104.36 108.173 104.339 108.194C101.121 111.688 97.1626 113.389 92.2598 113.389C91.8067 113.389 91.3737 113.369 90.9326 113.35H90.9248C83.6987 112.882 77.2264 110.156 72.4189 107.878L72.415 107.877C59.762 101.744 48.6763 93.0758 39.4688 82.0693V82.0684C32.1288 73.2492 27.1014 64.9628 23.7119 56.0869L23.3887 55.2266C21.179 49.2758 20.3156 44.3229 20.6875 39.6445V39.6426C21.0036 35.8697 22.5278 32.6041 25.2129 29.9189L32.4199 22.7119L32.4268 22.7061C34.5484 20.6835 36.9917 19.6114 39.5547 19.6113ZM39.5547 25.1094C38.4855 25.1095 37.3443 25.6104 36.2793 26.6387L29.1152 33.8027C27.3317 35.5863 26.3871 37.6384 26.1631 40.1094L26.1641 40.1104C25.8617 43.9084 26.5958 48.1083 28.5684 53.375L28.5693 53.377C31.75 61.9607 36.5612 69.9781 43.7266 78.6035L44.5469 79.5723C53.0771 89.5156 63.271 97.3801 74.833 102.976L75.6758 103.372C79.9674 105.369 85.4494 107.535 91.3018 107.91H91.3008C91.6291 107.929 91.9649 107.948 92.2793 107.948C95.5836 107.948 98.1161 106.874 100.253 104.574C101.539 103.036 102.96 101.674 104.304 100.369L104.306 100.367C105.21 99.5012 106.052 98.6783 106.854 97.8193L106.856 97.8154C107.989 96.6364 108.518 95.4884 108.526 94.3984C108.535 93.3116 108.027 92.202 106.92 91.0947L95.2998 79.4932L95.29 79.4834C94.5663 78.704 93.4679 77.8917 92.1641 77.8916C91.1041 77.8916 89.9829 78.4224 88.9121 79.4932L81.7051 86.7002C81.3703 87.035 80.269 88.125 78.5586 88.125C77.8736 88.125 77.1965 87.9524 76.5117 87.5996V87.5986C76.4641 87.5747 76.4225 87.5524 76.3906 87.5342C76.3561 87.5144 76.3313 87.5001 76.3037 87.4863L76.2861 87.4775L76.2686 87.4668C75.6515 87.0742 74.9548 86.7157 74.1836 86.3301L74.1807 86.3281C73.366 85.9113 72.455 85.4756 71.6055 84.9229C64.8594 80.6386 58.7394 75.078 52.9355 67.9199L52.9326 67.917C49.6981 63.8495 47.6151 60.4271 46.1143 56.8213L46.1094 56.8086L46.1045 56.7949C46.0989 56.7782 46.0938 56.7637 46.084 56.7393C46.0745 56.7156 46.0606 56.6817 46.0469 56.6406C45.847 56.0411 45.6682 55.3071 45.7676 54.498C45.8683 53.6789 46.2494 52.8199 47.1045 51.9648L47.209 51.8604L47.2178 51.8525C49.0559 50.225 50.7224 48.5205 52.5176 46.7061L52.5195 46.7041C52.8169 46.4068 53.1143 46.1044 53.4131 45.8008C53.7116 45.4975 54.0115 45.1926 54.3115 44.8926C55.4654 43.7387 56.0088 42.6174 56.0088 41.5635C56.0087 40.5097 55.4651 39.3891 54.3115 38.2354L48.5645 32.4883C48.2285 32.1427 47.8925 31.8016 47.5576 31.4619C47.223 31.1224 46.8893 30.7837 46.5605 30.4453V30.4443C45.2477 29.1121 44.0417 27.8689 42.7598 26.6826L42.7529 26.6768L42.7471 26.6699C41.7009 25.6054 40.5996 25.1094 39.5547 25.1094Z" fill="white" stroke="white" stroke-width="0.777073"/>
</svg>
