<svg width="134" height="134" viewBox="0 0 134 134" fill="none" xmlns="http://www.w3.org/2000/svg">
<path d="M92.6859 106.995C93.0893 106.995 111.336 106.991 110.937 106.991C112.558 106.991 113.874 105.675 113.874 104.054C112.503 73.2821 121.088 40.8105 89.0514 40.8105C82.8908 40.8105 77.9835 42.9137 74.4469 45.6944C74.4469 39.9724 68.2628 43.1369 53.9872 42.2871C52.3658 42.2871 51.0499 43.603 51.0499 45.2244C52.2326 100.705 48.4102 106.991 53.9872 106.991H72.238C77.537 106.991 74.1649 99.5185 75.1754 74.9231C75.1754 64.7637 78.1127 62.7741 83.1885 62.7741C88.8047 62.7741 89.7486 66.675 89.7486 75.4165C90.7551 99.5694 87.4065 106.995 92.6859 106.995ZM83.1885 56.8994C65.5996 56.8994 69.3006 76.239 69.3006 101.116H56.9246V48.1618H68.5722V53.2454C68.5722 56.0652 72.8686 57.4517 74.3646 54.6161C76.2916 50.9581 81.2968 46.6853 89.0514 46.6853C102.865 46.6853 107.999 53.4725 107.999 71.735V101.12H95.6233C95.6233 73.1411 98.5841 56.8994 83.1885 56.8994Z" fill="white"/>
<path d="M24.2719 42.2914C18.7105 42.2914 22.5173 48.499 21.3345 104.058C21.3345 105.68 22.6505 106.995 24.2719 106.995H42.5423C48.1037 106.995 44.2968 100.788 45.4796 45.2287C45.4796 40.1569 38.1127 43.1491 24.2719 42.2914ZM39.6049 101.121H27.2093V48.1661H39.6049V101.121Z" fill="white"/>
<path d="M33.4003 13C15.4785 13 15.5881 40.1373 33.4003 40.1373C51.2006 40.1373 51.3416 13 33.4003 13ZM33.4003 34.2625C23.3427 34.2625 23.2487 18.8747 33.4003 18.8747C43.5713 18.8747 43.4421 34.2625 33.4003 34.2625Z" fill="white"/>
</svg>
