<svg width="134" height="134" viewBox="0 0 134 134" fill="none" xmlns="http://www.w3.org/2000/svg">
<path d="M110.216 25.4102C116.868 25.4104 122.28 30.823 122.28 37.4756V96.7949C122.28 103.447 116.868 108.859 110.216 108.859H22.9814C16.3288 108.859 10.9161 103.447 10.916 96.7949V37.4756C10.916 30.8229 16.3287 25.4102 22.9814 25.4102H110.216ZM75.7109 72.0547C73.1532 73.7599 69.8734 74.6103 66.5986 74.6104C63.3229 74.6104 60.0444 73.7601 57.4863 72.0547L17.5996 45.4639V96.7949C17.5997 99.762 20.0139 102.176 22.9814 102.176H110.216C113.183 102.176 115.597 99.762 115.598 96.7949V45.4629L75.7109 72.0547ZM22.9814 32.0938C20.028 32.0938 17.6234 34.4847 17.6006 37.4326L61.1934 66.4941C62.6279 67.4504 64.6106 67.9326 66.5986 67.9326C68.5866 67.9326 70.5692 67.4506 72.0039 66.4941L115.596 37.4326C115.573 34.4847 113.169 32.094 110.216 32.0938H22.9814Z" fill="white" stroke="white" stroke-width="0.167458"/>
</svg>
