<svg width="450" height="450" viewBox="0 0 450 450" fill="none" xmlns="http://www.w3.org/2000/svg">
<path d="M184.4 237.4C180.1 235.9 170.9 235.1 156.6 235.1H137.1C136.5 235.1 136.1 235.6 136.1 236.1V276.2C136.1 276.8 136.5 277.2 137.1 277.2H160.3C171.6 277.2 178.7 276.9 181.8 276.2C186.5 275.3 190.2 273.2 193.2 269.9C196.1 266.6 197.6 262.1 197.6 256.5C197.6 251.8 196.5 247.8 194.2 244.5C191.9 241.3 188.7 238.9 184.4 237.4Z" fill="black"/>
<path d="M295.001 206C288.101 206 282.401 208.4 277.901 213.3C273.601 218 271.701 222.5 271.301 229C271.301 229.6 271.801 230.2 272.501 230.2H317.401C318.101 230.2 318.601 229.6 318.601 229C318.601 223.1 315.801 217.3 311.501 212.9C306.901 208.3 301.501 206 295.001 206Z" fill="black"/>
<path d="M137.1 208.9H151.8C164 208.9 171.6 208.7 174.6 208.4C180 207.8 184.2 205.9 187.2 202.8C190.3 199.7 191.8 195.6 191.8 190.5C191.8 185.6 190.5 181.7 187.8 178.6C185.2 175.6 181.2 173.7 176 173.1C172.9 172.7 164 172.6 149.2 172.6H137C136.4 172.6 136 173.1 136 173.6V208C136.1 208.4 136.6 208.9 137.1 208.9Z" fill="black"/>
<path d="M225 0C100.7 0 0 100.7 0 225C0 349.3 100.7 450 225 450C349.3 450 450 349.3 450 225C450 100.7 349.3 0 225 0ZM262.9 155.7C262.9 153.2 265 151.1 267.5 151.1H320.7C323.2 151.1 325.3 153.2 325.3 155.7V163.4C325.3 165.9 323.2 168 320.7 168H267.5C265 168 262.9 165.9 262.9 163.4V155.7ZM225 279C221.7 285.8 217.2 291.2 211.6 295.2C205.9 299.3 198.9 301.7 190.6 302.7C185.4 303.3 172.8 303.6 157.6 303.8H105.8C100.4 303.8 100 303.3 100 302.8V147.2C100 146.6 100.4 146.2 105.8 146.2H166.8C174.3 146.2 183.4 146.7 189.5 147.8C195.5 148.8 200.9 151 205.7 154.3C210.5 157.6 214.4 162 217.6 167.5C220.8 173 222.4 179.1 222.4 185.9C222.4 193.3 220.4 200.1 216.5 206.2C213 211.7 208.4 215.9 202.8 219C202 219.4 202.1 220.6 202.9 220.8C211.2 223.7 217.7 228.2 222.4 234.3C227.5 241 230 249 230 258.1C229.9 265.3 228.3 272.2 225 279ZM350 250.8C350 251.4 349.5 252 348.8 252H271.9C271.2 252 270.7 252.6 270.7 253.2C271.1 261.7 273.6 267 278.3 271.8C283.2 276.9 289.2 278.3 296.5 278.3C303.2 278.3 313.5 276.3 316.5 265.1C316.6 264.6 317.2 264.2 317.8 264.3L347 264.6C347.7 264.7 348 265.4 347.9 266.2C347.5 276.1 337.5 289.3 329.1 294.9C320.4 300.8 309.4 303.7 296.3 303.7C275.5 303.7 260.1 297.1 250.1 283.9C242.2 273.3 238.3 260 238.3 243.9C238.3 224.7 243.5 209.6 253.8 198.7C264.2 187.8 277.3 182.4 293.1 182.4C310.9 182.4 324.9 188.1 335.2 199.5C345.2 210.7 350.3 220.1 350 250.8Z" fill="black"/>
</svg>
