<?xml version="1.0" encoding="UTF-8"?>
<svg id="Layer_1" data-name="Layer 1" xmlns="http://www.w3.org/2000/svg" xmlns:xlink="http://www.w3.org/1999/xlink" viewBox="0 0 581.08 574.62">
  <defs>
    <style>
      .cls-1 {
        fill: url(#linear-gradient);
      }
    </style>
    <linearGradient id="linear-gradient" x1="89.8" y1="86.57" x2="491.28" y2="488.06" gradientUnits="userSpaceOnUse">
      <stop offset="0" stop-color="#fff"/>
      <stop offset="1" stop-color="#fff" stop-opacity="0"/>
    </linearGradient>
  </defs>
  <path class="cls-1" d="M290.54,6.42c37.92,0,74.71,7.43,109.34,22.07,33.45,14.15,63.49,34.4,89.29,60.2,25.8,25.8,46.05,55.84,60.2,89.29,14.65,34.63,22.07,71.41,22.07,109.34s-7.43,74.71-22.07,109.34c-14.15,33.45-34.4,63.49-60.2,89.29-25.8,25.8-55.84,46.05-89.29,60.2-34.63,14.65-71.41,22.07-109.34,22.07s-74.71-7.43-109.34-22.07c-33.45-14.15-63.49-34.4-89.29-60.2-25.8-25.8-46.05-55.84-60.2-89.29-14.65-34.63-22.07-71.41-22.07-109.34s7.43-74.71,22.07-109.34c14.15-33.45,34.4-63.49,60.2-89.29,25.8-25.8,55.84-46.05,89.29-60.2,34.63-14.65,71.41-22.07,109.34-22.07M290.54,3.42C133.75,3.42,6.65,130.52,6.65,287.31s127.1,283.89,283.89,283.89,283.89-127.1,283.89-283.89S447.33,3.42,290.54,3.42h0Z"/>
</svg>