<?xml version="1.0" encoding="UTF-8"?>
<svg id="Layer_2" data-name="Layer 2" xmlns="http://www.w3.org/2000/svg" viewBox="0 0 47.76 47.76">
  <defs>
    <style>
      .cls-1, .cls-2 {
        fill: #fff;
      }

      .cls-2 {
        fill-rule: evenodd;
      }
    </style>
  </defs>
  <circle cx="23.88" cy="23.88" r="23.88"/>
  <g>
    <path id="_242661440" data-name=" 242661440" class="cls-2" d="M26.85,25.26l9.04-7.87c-.26-2.31,2.86-4.71,3.87-5.79-3.44-.08-13.3,8.37-14.76,11.5"/>
    <path id="_242661416" data-name=" 242661416" class="cls-2" d="M22.24,23.55l6.15,5.82,1.03-.32c.07-.02.14,0,.2.03.06.04.09.11.09.18v1.01s.98-.08.98-.08c.06,0,.12.02.17.06.05.04.07.1.07.16v.99s.93-.01.93-.01c.12,0,.23.1.23.22v.99c1.23-.18,2.11.3,2.65.75.2.17.37.35.5.51-.04-1.09-.27-3.15-1.41-4.19,0,0-9.2-8.71-9.2-8.71"/>
    <path class="cls-1" d="M21.89,23.44h10.92s.28.01.28.01c.09.2.4.86.49,1.07,0,0,.01.02.01.02,0-.01-.02-.02-.04,0,0,0,0,0,0,0h0s0,0,0,0v-.02c.33-.64.76-1.51,1.07-2.15.3.64.73,1.58,1.02,2.22,0-.02-.03-.02-.04,0,0,0,0,0,0,0h0c.31-.64.76-1.56,1.07-2.19.29.64.71,1.57.99,2.2,0,0,0,.01,0,.01,0,0,0,0,0,0h0s-.07,0-.09,0c0,0,0,0,0,0l.05-.02s0,0-.01,0c-.01.02.05-.09.04-.09.14-.27.5-.97.64-1.25,0,0,.15-.28.15-.28,0,0,.25.04.25.04l3.13.51s-3.15.38-3.15.38c0,0,.4-.24.4-.24,0,0-.43.83-.42.83,0,0-.21.41-.21.41-.05.11-.11.22-.2.31-.23.21-.35.22-.59.28-.35.01-.69-.2-.82-.52-.13-.28-.47-1.05-.61-1.34,0,0,.8.01.8.01-.16.32-.52,1.06-.68,1.37-.33.63-1.29.59-1.56-.07-.13-.29-.49-1.05-.62-1.35,0,0,.8,0,.8,0-.12.25-.44.89-.56,1.13-.08.18-.18.38-.34.5-.45.38-1.16.17-1.36-.38,0,0-.35-.76-.35-.76l.4.26h-10.92s0-.9,0-.9h0Z"/>
    <path class="cls-1" d="M23.09,24.62l-11.14-10.53c-1.21-1.14-1.89-2.74-1.87-4.41l-.13-1.73,15.24,14.43"/>
    <path class="cls-1" d="M23.14,25.05l-9.66.03s-.06-.02-.08-.04c-.02-.03-.02-.06,0-.09l.43-.7c.06-.14.05-.29-.03-.42-.08-.12-.21-.19-.35-.19h-4.34c-.23.01-.42.2-.42.43v.95s-.03.07-.07.07c-1.1,0-2.1-.64-2.55-1.63-.12-.35-.2-.66-.18-.85l17.23-.16"/>
    <path class="cls-1" d="M19.38,30.51l-1.45-1.66,5.47-4.8-.59-.66c-1.66,1.45-9.74,8.53-11.56,10.12h0s0,0,0,0c0,0-.02.01-.02.02h0c1.17,1.52,2.97,1.53,4.07.57l4.07-3.55h.04s0-.02,0-.02l.02-.02h-.03Z"/>
    <path class="cls-1" d="M22.25,22.91v-12.63c0-2.84.79-5.61,2.29-8.02,1.5,2.41,2.29,5.18,2.29,8.02v12.63"/>
    <g>
      <g>
        <path class="cls-1" d="M24.54,46.76c-2.12,0-3.84-1.72-3.84-3.84v-20.63c0-2.12,1.72-3.84,3.84-3.84s3.84,1.72,3.84,3.84v20.63c0,2.12-1.72,3.84-3.84,3.84Z"/>
        <path d="M24.54,19.04c1.8,0,3.25,1.46,3.25,3.25v20.63c0,1.8-1.46,3.25-3.25,3.25h0c-1.8,0-3.25-1.46-3.25-3.25v-20.63c0-1.8,1.46-3.25,3.25-3.25h0M24.54,17.85c-2.45,0-4.44,1.99-4.44,4.44v20.63c0,2.45,1.99,4.44,4.44,4.44s4.44-1.99,4.44-4.44v-20.63c0-2.45-1.99-4.44-4.44-4.44h0Z"/>
      </g>
      <circle cx="24.54" cy="22.15" r="1.15"/>
    </g>
  </g>
</svg>