<?xml version="1.0" encoding="UTF-8"?>
<svg id="Layer_2" data-name="Layer 2" xmlns="http://www.w3.org/2000/svg" viewBox="0 0 62.78 62.78">
  <defs>
    <style>
      .cls-1 {
        fill: #fff;
      }

      .cls-2 {
        fill-rule: evenodd;
      }

      .cls-2, .cls-3 {
        fill: #231f20;
      }
    </style>
  </defs>
  <circle class="cls-1" cx="31.39" cy="31.39" r="31.39"/>
  <g>
    <path class="cls-2" d="M37.79,29.93c0-1.3-.46-2.57-1.3-3.56l-.15-.18.16-.16c4.17-4.16,11.99-10.31,15.53-10.31h.57l-.32.42c-.24.26-.58.58-.96.95-1.71,1.62-4.29,4.08-4.02,6.42l.02.13-9.54,8.3v-2.01Z"/>
    <path class="cls-3" d="M52.04,15.97s.05,0,.07,0c-1.31,1.41-5.4,4.55-5.05,7.56l-9.02,7.85v-1.46c0-1.43-.52-2.73-1.36-3.72,4.67-4.66,12.1-10.23,15.36-10.23M52.04,15.47h0c-3.65,0-11.39,6.07-15.71,10.38l-.33.32.3.35c.8.95,1.24,2.16,1.24,3.4v2.56l.83-.72,9.02-7.85.2-.17-.03-.26c-.25-2.22,2.38-4.72,3.95-6.21.39-.37.72-.69.98-.96l.75-.81-1.11-.03h-.09Z"/>
  </g>
  <g>
    <path class="cls-2" d="M46.03,45.21c-.18-.23-.39-.44-.61-.63-.52-.45-1.39-.98-2.59-.98-.21,0-.43.02-.66.05l-.29.04-.02-1.59-1.26-.03h-.25s0-1.53,0-1.53l-1.33.05-.27.02.02-1.59-.64.14-.33.11v-6.29l6.77,6.42c1.56,1.42,1.87,4.15,1.91,5.65l.02.75-.47-.59Z"/>
    <path class="cls-3" d="M38.04,33.56l6.35,6.02c1.49,1.36,1.79,4.04,1.83,5.47-.17-.22-.39-.45-.65-.66-.6-.51-1.52-1.04-2.75-1.04-.22,0-.46.02-.7.05v-1.3c-.01-.16-.16-.29-.32-.29h-1.21s0-1.27,0-1.27c0-.09-.03-.16-.09-.22-.07-.06-.14-.09-.23-.09l-1.28.1v-1.31c.01-.1-.03-.19-.12-.25-.05-.04-.11-.06-.17-.06-.03,0-.06,0-.09.01l-.58.19v-5.37M37.54,32.4v7.22l.65-.21.31-.1v1.03s-.02.55-.02.55l.55-.04,1.06-.08v1.58h.51s1.01-.02,1.01-.02v1.09s.02.58.02.58l.57-.09c.21-.03.42-.05.62-.05,1.12,0,1.94.5,2.42.92.22.18.41.38.58.6l.94,1.17-.05-1.5c-.05-1.54-.37-4.34-2-5.82l-6.34-6.01-.84-.8h0Z"/>
  </g>
  <g>
    <path class="cls-3" d="M49.38,34.35c-.55,0-1.06-.33-1.26-.83-.02-.04-.04-.08-.07-.14-.04.09-.08.16-.12.22-.24.45-.69.71-1.21.71-.56,0-1.07-.33-1.28-.84-.02-.04-.05-.1-.08-.17-.14.28-.26.51-.48.67-.23.19-.52.3-.84.3-.58,0-1.11-.36-1.32-.9l-.23-.5h-4.71v-1.67l5.76.02.07.14c.07.13.19.4.32.68.04.08.07.15.1.22.21-.43.44-.91.67-1.37l.7-1.44s.96,2.08,1.31,2.85l.34-.69c.29-.58.58-1.19.82-1.65l.24-.47,1.27,2.82c.21-.41.49-.98.63-1.24l.29-.52.5.06,4.3.7v.21q0,.23-2.07.47c-.63.07-1.28.15-1.73.21l-.37.71-.27.53c-.08.16-.16.33-.31.47-.33.3-.54.35-.8.41l-.14.03h-.04Z"/>
    <path class="cls-3" d="M45.4,30.03c.38.82.92,2.01,1.31,2.84.4-.81.98-2.01,1.39-2.8.36.81.89,1.98,1.27,2.81.01-.03.04-.07.04-.07.17-.35.64-1.27.82-1.63l.2-.36.33.04,4.08.66s-2.67.32-3.71.45l-.43.82-.27.53c-.07.14-.14.29-.26.4-.3.27-.46.29-.77.36-.01,0-.02,0-.03,0-.45,0-.86-.27-1.03-.68-.07-.14-.17-.38-.29-.62-.14.27-.26.52-.35.68-.21.39-.6.58-.99.58-.43,0-.86-.23-1.05-.69-.07-.14-.17-.39-.3-.65-.07.16-.14.29-.19.38-.12.23-.23.51-.45.66-.21.17-.45.25-.69.25-.46,0-.91-.28-1.08-.74l-.3-.66h-4.62v-1.17h4.99s.36.01.36.01c.13.26.51,1.08.65,1.37.39-.84.95-1.96,1.36-2.8M45.42,28.85l-.46.96c-.14.29-.3.63-.47.97-.14.29-.29.59-.43.88-.08-.18-.16-.34-.2-.43l-.14-.28h-5.66s-.5-.02-.5-.02v2.17h4.8l.17.37c.23.61.86,1.03,1.54,1.03.37,0,.72-.13,1.01-.36.12-.09.22-.2.3-.31.29.44.8.72,1.37.72.53,0,1.01-.25,1.31-.66.29.42.8.7,1.34.7h.05s.05,0,.05,0h.05s.08-.03.08-.03c.27-.06.53-.12.9-.46.19-.19.29-.39.37-.55l.27-.53.31-.59c.44-.05,1.03-.12,1.61-.19q2.28-.27,2.28-.72v-.43l-.42-.07-4.08-.66-.35-.05-.34-.04-.17.3-.2.36c-.09.18-.25.48-.4.79-.05-.12-.11-.24-.16-.36-.24-.54-.49-1.07-.68-1.51l-.43-.96-.48.93c-.24.46-.53,1.06-.82,1.65-.04.08-.07.15-.11.22-.3-.65-.63-1.35-.87-1.89l-.44-.97h0Z"/>
  </g>
  <g>
    <path class="cls-3" d="M15.64,19.41c-1.62-1.54-2.53-3.71-2.52-5.94l-.22-2.89,15.88,15.02-.21.18c-1.05.92-1.7,2.18-1.85,3.55l-.05.5-11.03-10.42Z"/>
    <path class="cls-3" d="M13.2,11.21l15.21,14.39c-1.05.92-1.78,2.24-1.93,3.71l-10.67-10.08c-1.57-1.5-2.45-3.58-2.44-5.76l-.17-2.27M12.6,9.95l.1,1.29.17,2.27c-.02,2.26.93,4.5,2.59,6.08l10.67,10.08.73.69.11-1c.14-1.31.77-2.51,1.77-3.39l.41-.36-.4-.38-15.21-14.39-.94-.89h0Z"/>
  </g>
  <g>
    <path class="cls-3" d="M11.48,33.84c-1.52,0-2.92-.9-3.56-2.28-.21-.61-.28-.97-.25-1.25l.02-.22,19.01-.18v3.88l-8.9.03c-.12,0-.25-.08-.31-.19-.08-.12-.07-.29.04-.4l.53-.88c.04-.07.03-.19-.03-.27-.06-.09-.16-.14-.26-.14l-5.66.03c-.17,0-.3.13-.3.3v1.24c-.05.24-.18.34-.34.34Z"/>
    <path class="cls-3" d="M26.45,30.17v3.38l-8.65.03s-.07-.03-.09-.06c-.03-.04-.03-.09,0-.12l.56-.92c.09-.17.07-.39-.04-.55-.1-.14-.27-.25-.46-.25l-5.66.03c-.3,0-.55.25-.55.55v1.24s-.03.09-.09.09c-1.43,0-2.73-.84-3.33-2.14-.16-.46-.26-.85-.23-1.11l18.53-.17M26.95,29.67h-.5s-18.53.18-18.53.18h-.44s-.05.44-.05.44c-.03.31.04.71.26,1.33v.02s.02.02.02.02c.69,1.47,2.17,2.42,3.79,2.42.26,0,.49-.17.58-.43l.03-.08v-.08s-.02-1.24-.02-1.24c0-.02.02-.04.05-.04l5.66-.03s.04.01.05.03l-.52.9c-.14.19-.14.44-.02.65.11.18.31.3.52.3l8.65-.03h.5v-4.38h0Z"/>
  </g>
  <g>
    <path class="cls-3" d="M17.9,46.44c-1.24,0-2.38-.6-3.22-1.68l-.16-.17.17-.17c1.75-1.53,7.61-6.66,11.61-10.17l.42-.36v2.22l-2.73,2.39,1.65,1.91h.14v.25s.01.18.01.18l-.17.07-5.27,4.61c-.68.59-1.54.91-2.44.91Z"/>
    <path class="cls-3" d="M26.45,34.44v1.56l-2.83,2.48,1.89,2.18h.01s-.04.03-.04.03l-5.31,4.65c-.63.55-1.44.85-2.28.85-1.06,0-2.17-.49-3.02-1.59h-.01s.01-.03.03-.04c1.7-1.49,7.56-6.61,11.56-10.12M26.95,33.34l-.83.73c-4,3.51-9.86,8.63-11.56,10.12h-.01s-.04.05-.04.05l-.35.35.35.35c.86,1.12,2.07,1.75,3.39,1.75.96,0,1.88-.35,2.6-.97l5.24-4.58.25-.08.04-.38v-.5h-.28s-1.42-1.65-1.42-1.65l2.46-2.15.17-.15v-2.89h0Z"/>
  </g>
  <g>
    <path class="cls-3" d="M35.11,25.2c-.84-.53-1.83-.81-2.85-.81s-2.01.28-2.86.8l-.38.23v-11.17c0-3.76,1.05-7.42,3.03-10.6l.21-.34.21.34c1.98,3.2,3.03,6.86,3.03,10.6v11.19l-.38-.24Z"/>
    <path class="cls-3" d="M32.25,3.79c1.95,3.15,2.99,6.76,2.99,10.46v10.74c-.87-.55-1.91-.85-2.99-.85s-2.12.3-2.99.84v-10.72c0-3.71,1.02-7.32,2.99-10.46M32.26,2.84l-.43.68c-2,3.21-3.06,6.92-3.06,10.73v11.62l.76-.47c.81-.5,1.75-.76,2.73-.76s1.92.27,2.72.77l.77.49v-11.65c0-3.78-1.06-7.49-3.06-10.73l-.42-.68h0Z"/>
  </g>
  <g>
    <path class="cls-3" d="M32.26,61.23c-1.16,0-2.26-.45-3.11-1.28-.83-.82-1.28-1.92-1.28-3.1v-26.93c0-1.17.47-2.3,1.31-3.12.09-.09.18-.16.27-.24.82-.66,1.79-1.01,2.81-1.01,1.14,0,2.23.45,3.07,1.26.1.1.19.21.28.32l.09.11c.6.78.92,1.7.92,2.68v26.93c0,2.41-1.96,4.38-4.37,4.38ZM32.25,28.36c-.27,0-.52.08-.74.23-.39.25-.64.68-.64,1.15,0,.05,0,.12,0,.17.02.16.06.31.14.47.05.09.11.19.18.28.11.13.25.23.44.32.11.05.23.1.36.11.08.03.16.03.24.03.23,0,.42-.05.6-.14.12-.06.23-.13.33-.22l.09-.1c.23-.25.36-.56.36-.91v-.13s-.03-.11-.03-.11c-.09-.6-.58-1.06-1.19-1.12l-.06.03-.06-.04-.04-.13v.12Z"/>
    <path class="cls-3" d="M32.25,25.68c1.17,0,2.21.48,2.99,1.23h0c.13.13.25.28.37.42.56.72.89,1.62.89,2.6v26.93c0,2.34-1.91,4.25-4.24,4.25-1.19,0-2.24-.48-3.02-1.24-.77-.77-1.24-1.84-1.24-3.01v-22.21h0s0-1.1,0-1.1v-3.62c0-1.18.49-2.27,1.27-3.03.09-.09.17-.16.26-.23.75-.61,1.69-.98,2.73-.98M32.26,31.24c.24,0,.46-.05.66-.16.17-.08.33-.2.45-.34,0,0,0,0,0,0h0c.25-.26.39-.61.39-1,0-.03,0-.06,0-.09,0-.03,0-.07-.01-.11,0,0,0-.02,0-.04,0,0,0-.02,0-.02-.1-.65-.64-1.15-1.3-1.23-.02,0-.03,0-.05,0,0,0-.02,0-.03,0-.03-.01-.07-.01-.1-.01-.31,0-.58.09-.81.25-.42.26-.69.73-.69,1.25,0,.06,0,.13.01.19.02.19.08.35.16.51.06.11.12.21.2.3.13.15.29.26.48.35.13.06.26.11.4.13.07.03.16.03.25.03M32.25,25.43c-1.05,0-2.05.36-2.89,1.04-.1.08-.19.16-.28.25-.85.84-1.34,2.01-1.34,3.21v5.27h0s0,21.66,0,21.66c0,1.21.47,2.34,1.31,3.19.87.85,2,1.31,3.2,1.31,2.48,0,4.49-2.02,4.49-4.5v-26.93c0-1.01-.33-1.96-.94-2.75l-.09-.11c-.07-.09-.15-.17-.22-.26h0s-.08-.08-.08-.08c-.87-.84-1.99-1.3-3.16-1.3h0ZM32.26,30.99c-.05,0-.13,0-.15,0h-.03s-.04-.02-.04-.02c-.11-.01-.23-.06-.33-.1-.17-.08-.3-.17-.39-.28-.08-.08-.13-.18-.17-.26-.08-.15-.12-.28-.13-.41-.01-.06,0-.12,0-.17,0-.42.22-.82.57-1.04.21-.14.43-.21.68-.21l.11.06.06-.04c.55.08.97.49,1.05,1.02v.08s.02,0,.02,0v.02s0,.08,0,.08c0,.35-.11.63-.32.86l-.11.11c-.08.07-.17.13-.27.18-.17.09-.35.14-.55.14h0Z"/>
  </g>
</svg>