<?xml version="1.0" encoding="UTF-8"?>
<svg id="Layer_2" data-name="Layer 2" xmlns="http://www.w3.org/2000/svg" viewBox="0 0 47.76 47.76">
  <defs>
    <style>
      .cls-1 {
        fill: #fff;
      }

      .cls-2 {
        fill-rule: evenodd;
      }

      .cls-2, .cls-3 {
        fill: #231f20;
      }
    </style>
  </defs>
  <circle class="cls-1" cx="23.88" cy="23.88" r="23.88"/>
  <g>
    <path class="cls-2" d="M27.52,24.8l-.1.08-.86.75-.72-.84-.69-.8-.21-.25c.12-.06.23-.14.31-.24.17-.18.27-.42.27-.69,0-.05,0-.09-.01-.14t.01-.02c.28-.38.62-.79,1.03-1.23.07-.09.16-.18.25-.28.39.5.62,1.12.62,1.8v1.86h.1Z"/>
    <path class="cls-2" d="M38.24,13.27c-.91.98-3.74,3.15-3.5,5.24l-6.25,5.44v-1.01c0-.99-.36-1.89-.94-2.58,3.26-3.25,8.46-7.15,10.69-7.09Z"/>
    <path class="cls-2" d="M24.6,21.78s-.03,0-.05,0l.02-.03.03.03Z"/>
    <path class="cls-2" d="M27.52,24.8l-.1.08v3.96l-4.13-3.91-.08-.07-.07-.07-.59-.55-.16-.16.09-.1.45-.48.28-.3.24-.26c.02.22.11.41.25.56.15.18.37.3.61.33.05.02.11.02.17.02.17,0,.32-.04.46-.11.12-.06.23-.14.31-.24.17-.18.27-.42.27-.69,0-.05,0-.09-.01-.14,0-.01,0-.03-.01-.04l.02.02.9.85.51.49.49.46v.35h.1Z"/>
    <path class="cls-2" d="M34.16,33.42c-.12-.15-.27-.31-.45-.46-.49-.42-1.29-.85-2.39-.68v-.9c0-.11-.11-.2-.22-.2h-.84s0-.88,0-.88c0-.06-.02-.11-.06-.15-.05-.04-.1-.06-.16-.06l-.89.07v-.91c.01-.07-.02-.13-.08-.17-.05-.04-.12-.05-.18-.03l-.4.13v-3.72l4.4,4.17c1.03.94,1.24,2.8,1.27,3.79Z"/>
    <polygon class="cls-3" points="27.42 23.99 27.42 24.8 25.84 24.79 22.07 24.79 22.07 24.67 22.08 24.02 22.08 23.98 24.17 23.98 25.15 23.99 27.42 23.99"/>
    <path class="cls-3" d="M40.14,24.05s-1.85.22-2.57.31l-.3.57-.19.37c-.05.1-.1.2-.18.28-.21.19-.32.2-.53.25-.32,0-.62-.18-.74-.47-.05-.1-.12-.26-.2-.43-.1.19-.18.36-.24.47-.3.57-1.16.53-1.41-.07-.05-.1-.12-.27-.21-.45-.05.11-.1.2-.13.26-.08.16-.16.35-.31.46-.41.34-1.04.15-1.23-.34l-.21-.46h-3.2v-.81h3.46s.25.01.25.01c.09.18.35.75.45.95.27-.58.66-1.36.94-1.94.26.57.64,1.39.91,1.97.28-.56.68-1.39.96-1.94.25.56.62,1.37.88,1.95.01-.02.03-.05.03-.05.12-.24.44-.88.57-1.13l.14-.25.23.03,2.83.46Z"/>
    <path class="cls-3" d="M21.82,19.94c-.73.64-1.23,1.55-1.34,2.57l-7.39-6.98c-1.09-1.04-1.7-2.48-1.69-3.99l-.12-1.57,10.54,9.97Z"/>
    <path class="cls-3" d="M24.31,23.83l-.14.15-.76.81-.12.14-.12.12-.16-.15-.11-.11-.47-.44-.35-.33-.55-.52v-.56c0-.82.34-1.57.88-2.1.06-.06.12-.11.18-.16l1.33,1.26c-.29.18-.48.51-.48.87,0,.04,0,.09.01.13.02.22.11.41.25.56.15.18.37.3.61.33Z"/>
    <path class="cls-3" d="M7.62,23.23l12.84-.12v2.34l-5.99.02s-.05-.02-.06-.04c-.02-.03-.02-.06,0-.08l.39-.64c.06-.12.05-.27-.03-.38-.07-.1-.19-.17-.32-.17l-3.92.02c-.21,0-.38.17-.38.38v.86s-.02.06-.06.06c-.99,0-1.89-.58-2.31-1.48-.11-.32-.18-.59-.16-.77Z"/>
    <polygon class="cls-3" points="23.21 23.09 23.21 25.44 22.4 25.44 21.53 25.45 21.53 23.11 22.41 23.1 23.21 23.09"/>
    <path class="cls-3" d="M12.45,33.08c1.18-1.03,5.24-4.58,8.01-7.01v1.08l-1.96,1.72,1.31,1.51h0s-.03.02-.03.02l-3.68,3.22c-.99.86-2.62.85-3.67-.51h0s0-.02.02-.03Z"/>
    <path class="cls-3" d="M23.44,24.53l-.23.2-.07.06-.13.11-.61.54-.87.77v-1.07c.19-.17.37-.33.54-.47.13-.12.25-.22.36-.32.04-.04.08-.07.12-.11.12-.1.22-.19.3-.26.02-.02.04-.03.06-.05l.05.05.25.29.23.26Z"/>
    <path class="cls-3" d="M26.55,12.08v7.44c-.6-.38-1.32-.59-2.07-.59s-1.47.21-2.07.58v-7.43c0-2.57.71-5.07,2.07-7.25,1.35,2.18,2.07,4.68,2.07,7.25Z"/>
    <path class="cls-3" d="M26.55,20.85v2.65h-1.3c.17-.18.27-.42.27-.69,0-.05,0-.09-.01-.14,0-.01,0-.03-.01-.04-.07-.45-.44-.8-.9-.85-.02,0-.03,0-.05,0-.02,0-.05,0-.07,0-.21,0-.4.06-.56.17-.29.18-.48.51-.48.87,0,.04,0,.09.01.13.02.22.11.41.25.56h-1.29v-2.66c.06-.06.12-.11.18-.16.52-.42,1.17-.68,1.89-.68.81,0,1.53.33,2.07.85Z"/>
    <g>
      <polygon class="cls-3" points="21 23 21.11 23.11 21 23.11 21 23"/>
      <path class="cls-3" d="M27.42,24.8v-1.86c0-.68-.23-1.3-.62-1.8-.08-.1-.16-.2-.25-.29-.54-.52-1.26-.85-2.07-.85-.72,0-1.37.26-1.89.68-.06.05-.12.1-.18.16-.54.53-.88,1.28-.88,2.1v18.66c0,.81.33,1.55.86,2.08.54.53,1.27.86,2.09.86,1.62,0,2.94-1.32,2.94-2.94v-16.72l.1-.08h-.1ZM24.48,21.77s.05,0,.07,0c.02,0,.03,0,.05,0,.46.05.83.4.9.85.01.01.01.03.01.04.01.05.01.09.01.14,0,.27-.1.51-.27.69-.08.1-.19.18-.31.24-.14.07-.29.11-.46.11-.06,0-.12,0-.17-.02-.24-.03-.46-.15-.61-.33-.14-.15-.23-.34-.25-.56-.01-.04-.01-.09-.01-.13,0-.36.19-.69.48-.87.16-.11.35-.17.56-.17Z"/>
      <path class="cls-3" d="M21,23v.11h.11l-.11-.11ZM27.42,24.8v.08l.1-.08h-.1ZM28.44,23.99h.05v-.04l-.05.04Z"/>
    </g>
  </g>
</svg>