<?xml version="1.0" encoding="UTF-8"?>
<svg id="Layer_2" data-name="Layer 2" xmlns="http://www.w3.org/2000/svg" viewBox="0 0 62.78 62.78">
  <defs>
    <style>
      .cls-1 {
        fill: #fff;
      }

      .cls-2 {
        fill-rule: evenodd;
      }

      .cls-2, .cls-3 {
        fill: #231f20;
      }
    </style>
  </defs>
  <circle class="cls-1" cx="31.39" cy="31.39" r="31.39"/>
  <g>
    <path class="cls-2" d="M36.64,32.61l-.14.12-1.24,1.08-1.04-1.21-1-1.15-.3-.36c.17-.09.33-.2.45-.35.25-.26.39-.61.39-1,0-.07,0-.13-.01-.2t.01-.03c.4-.55.89-1.14,1.49-1.78.1-.13.23-.26.36-.4.56.72.89,1.62.89,2.6v2.68h.14Z"/>
    <path class="cls-2" d="M52.12,15.97c-1.31,1.41-5.4,4.55-5.05,7.56l-9.02,7.85v-1.46c0-1.43-.52-2.73-1.36-3.72,4.71-4.69,12.21-10.32,15.43-10.23Z"/>
    <path class="cls-2" d="M32.43,28.25s-.04-.01-.07,0l.03-.04.04.04Z"/>
    <path class="cls-2" d="M36.64,32.61l-.14.12v5.72l-5.96-5.64-.12-.1-.1-.1-.85-.79-.23-.23.13-.14.65-.69.4-.43.35-.38c.03.32.16.59.36.81.22.26.53.43.88.48.07.03.16.03.25.03.25,0,.46-.06.66-.16.17-.09.33-.2.45-.35.25-.26.39-.61.39-1,0-.07,0-.13-.01-.2,0-.01,0-.04-.01-.06l.03.03,1.3,1.23.74.71.71.66v.51h.14Z"/>
    <path class="cls-2" d="M46.23,45.05c-.17-.22-.39-.45-.65-.66-.71-.61-1.86-1.23-3.45-.98v-1.3c-.01-.16-.16-.29-.32-.29h-1.21s0-1.27,0-1.27c0-.09-.03-.16-.09-.22-.07-.06-.14-.09-.23-.09l-1.28.1v-1.31c.01-.1-.03-.19-.12-.25-.07-.06-.17-.07-.26-.04l-.58.19v-5.37l6.35,6.02c1.49,1.36,1.79,4.04,1.83,5.47Z"/>
    <polygon class="cls-3" points="36.5 31.44 36.5 32.61 34.22 32.6 28.78 32.6 28.78 32.42 28.79 31.49 28.79 31.43 31.81 31.43 33.22 31.44 36.5 31.44"/>
    <path class="cls-3" d="M54.86,31.53s-2.67.32-3.71.45l-.43.82-.27.53c-.07.14-.14.29-.26.4-.3.27-.46.29-.76.36-.46.01-.9-.26-1.07-.68-.07-.14-.17-.38-.29-.62-.14.27-.26.52-.35.68-.43.82-1.67.77-2.04-.1-.07-.14-.17-.39-.3-.65-.07.16-.14.29-.19.38-.12.23-.23.51-.45.66-.59.49-1.5.22-1.78-.49l-.3-.66h-4.62v-1.17h4.99s.36.01.36.01c.13.26.51,1.08.65,1.37.39-.84.95-1.96,1.36-2.8.38.82.92,2.01,1.31,2.84.4-.81.98-2.01,1.39-2.8.36.81.89,1.98,1.27,2.81.01-.03.04-.07.04-.07.17-.35.64-1.27.82-1.63l.2-.36.33.04,4.08.66Z"/>
    <path class="cls-3" d="M28.41,25.6c-1.05.92-1.78,2.24-1.93,3.71l-10.67-10.08c-1.57-1.5-2.45-3.58-2.44-5.76l-.17-2.27,15.21,14.39Z"/>
    <path class="cls-3" d="M32.01,31.21l-.2.22-1.1,1.17-.17.2-.17.17-.23-.22-.16-.16-.68-.64-.51-.48-.79-.75v-.81c0-1.18.49-2.27,1.27-3.03.09-.09.17-.16.26-.23l1.92,1.82c-.42.26-.69.74-.69,1.26,0,.06,0,.13.01.19.03.32.16.59.36.81.22.26.53.43.88.48Z"/>
    <path class="cls-3" d="M7.92,30.35l18.53-.17v3.38l-8.65.03s-.07-.03-.09-.06c-.03-.04-.03-.09,0-.12l.56-.92c.09-.17.07-.39-.04-.55-.1-.14-.27-.25-.46-.25l-5.66.03c-.3,0-.55.25-.55.55v1.24s-.03.09-.09.09c-1.43,0-2.73-.84-3.33-2.14-.16-.46-.26-.85-.23-1.11Z"/>
    <polygon class="cls-3" points="30.42 30.14 30.42 33.54 29.25 33.54 28 33.55 28 30.17 29.27 30.16 30.42 30.14"/>
    <path class="cls-3" d="M14.89,44.56c1.7-1.49,7.56-6.61,11.56-10.12v1.56l-2.83,2.48,1.89,2.18h.01s-.04.03-.04.03l-5.31,4.65c-1.43,1.24-3.78,1.23-5.3-.74h-.01s.01-.03.03-.04Z"/>
    <path class="cls-3" d="M30.75,32.22l-.33.29-.1.09-.19.16-.88.78-1.26,1.11v-1.54c.27-.25.53-.48.78-.68.19-.17.36-.32.52-.46.06-.06.12-.1.17-.16.17-.14.32-.27.43-.38.03-.03.06-.04.09-.07l.07.07.36.42.33.38Z"/>
    <path class="cls-3" d="M35.24,14.25v10.74c-.87-.55-1.91-.85-2.99-.85s-2.12.3-2.99.84v-10.72c0-3.71,1.02-7.32,2.99-10.46,1.95,3.15,2.99,6.76,2.99,10.46Z"/>
    <path class="cls-3" d="M35.24,26.91v3.83h-1.88c.25-.26.39-.61.39-1,0-.07,0-.13-.01-.2,0-.01,0-.04-.01-.06-.1-.65-.64-1.15-1.3-1.23-.03,0-.04-.01-.07,0-.03-.01-.07-.01-.1-.01-.3,0-.58.09-.81.25-.42.26-.69.74-.69,1.26,0,.06,0,.13.01.19.03.32.16.59.36.81h-1.86v-3.84c.09-.09.17-.16.26-.23.75-.61,1.69-.98,2.73-.98,1.17,0,2.21.48,2.99,1.23Z"/>
    <g>
      <polygon class="cls-3" points="27.23 30.01 27.39 30.17 27.23 30.17 27.23 30.01"/>
      <path class="cls-3" d="M36.5,32.61v-2.68c0-.98-.33-1.88-.89-2.6-.12-.14-.23-.29-.36-.42-.78-.75-1.82-1.23-2.99-1.23-1.04,0-1.98.38-2.73.98-.09.07-.17.14-.26.23-.78.77-1.27,1.85-1.27,3.03v26.93c0,1.17.48,2.24,1.24,3,.78.77,1.83,1.24,3.02,1.24,2.34,0,4.24-1.91,4.24-4.24v-24.13l.14-.12h-.14ZM32.25,28.24s.07,0,.1.01c.03-.01.04,0,.07,0,.66.07,1.2.58,1.3,1.23.01.01.01.04.01.06.01.07.01.13.01.2,0,.39-.14.74-.39,1-.12.14-.27.26-.45.35-.2.1-.42.16-.66.16-.09,0-.17,0-.25-.03-.35-.04-.66-.22-.88-.48-.2-.22-.33-.49-.36-.81-.01-.06-.01-.13-.01-.19,0-.52.27-1,.69-1.26.23-.16.51-.25.81-.25Z"/>
      <path class="cls-3" d="M27.23,30.01v.16h.16l-.16-.16ZM36.5,32.61v.12l.14-.12h-.14ZM37.97,31.44h.07v-.06l-.07.06Z"/>
    </g>
  </g>
</svg>