<svg width="1007" height="136" viewBox="0 0 1007 136" fill="none" xmlns="http://www.w3.org/2000/svg">
<path d="M122.918 74.6333C122.918 113.065 96.3999 135.473 64.498 135.473C28.4128 135.473 0.00292969 106.917 0.00292969 71.9778C0.00292969 37.0385 28.5583 8.08301 63.5886 8.08301C79.4668 8.22851 96.3999 15.5219 108.404 27.2351L94.7266 47.6603C85.1597 38.3116 74.2104 33.0007 63.2794 33.0007C44.291 33.0007 25.0662 49.0972 25.0662 71.9778C25.0662 93.2397 41.6173 110.719 65.5529 110.719C83.0317 110.719 95.5633 101.752 96.3999 87.0194H64.7162V64.3025H122.3C122.682 67.8673 122.9 71.2867 122.9 74.6333H122.918Z" fill="white"/>
<path d="M291.179 10.5928H334.175C357.875 10.5928 377.245 29.1992 377.245 51.9889C377.245 74.7786 357.875 93.2396 334.175 93.2396H315.787V133.053H291.179V10.5928ZM352.618 51.7707C352.618 42.4947 344.343 34.983 334.157 34.983H315.769V68.8675L334.157 68.9402C344.343 69.013 352.618 61.2649 352.618 51.7707Z" fill="white"/>
<path d="M391.069 10.5928H415.678V133.053H391.069V10.5928Z" fill="white"/>
<path d="M431.628 71.9055C431.628 37.3481 460.729 8.10156 495.214 8.10156C511.165 8.33801 525.297 14.6311 538.138 27.0172L523.933 46.3875C515.584 38.1847 505.544 33.1648 494.995 33.1648C475.316 33.1648 456.564 50.6436 456.564 72.051C456.564 93.4584 476.007 110.719 494.923 110.719C506.163 110.719 515.893 104.717 524.024 96.7504L538.156 116.648C527.37 127.361 514.22 135.418 495.686 135.418C460.365 135.418 431.646 106.317 431.646 71.9055H431.628Z" fill="white"/>
<path d="M645.026 10.5928V133.053H620.49V83.9818H576.511V133.053H551.976V10.5928H576.511V59.5915H620.49V10.5928H645.026Z" fill="white"/>
<path d="M740.66 115.957H691.661L683.84 133.054H657.249L716.106 7.55566L775.072 133.054H748.408L740.66 115.957ZM731.093 94.9859L716.197 62.2473L701.228 94.9859H731.075H731.093Z" fill="white"/>
<path d="M885.768 10.2837L885.168 135.327L811.924 64.6115V133.199H787.315L787.879 8.31934L861.086 78.8892V10.2837H885.768Z" fill="white"/>
<path d="M1006.39 71.9778C1006.39 109.955 982.238 133.054 942.661 133.054H907.03V10.6657L942.661 10.5929C982.238 10.5202 1006.39 33.7646 1006.39 71.9778ZM981.565 71.9051C981.565 48.9699 966.833 34.9832 942.588 34.9832H931.566V108.518H942.806C966.887 108.518 981.547 94.6948 981.547 71.9051H981.565Z" fill="white"/>
<path d="M206.315 136C241.664 136 270.319 107.345 270.319 71.9962C270.319 36.6477 241.664 7.99219 206.315 7.99219C170.967 7.99219 142.312 36.6477 142.312 71.9962C142.312 107.345 170.967 136 206.315 136Z" fill="white"/>
<path fill-rule="evenodd" clip-rule="evenodd" d="M215.377 86.6245L244.019 61.6643C243.181 54.3604 253.083 46.7496 256.274 43.292C245.349 43.026 214.129 69.8275 209.464 79.7707" fill="black"/>
<path fill-rule="evenodd" clip-rule="evenodd" d="M200.749 84.6191L220.247 103.073L223.52 102.05C223.745 101.989 223.97 102.03 224.154 102.153C224.338 102.296 224.441 102.5 224.441 102.725V105.938L227.551 105.692C227.755 105.692 227.939 105.753 228.082 105.876C228.226 106.019 228.308 106.204 228.308 106.388V109.518L231.254 109.477C231.642 109.477 231.97 109.784 231.97 110.173L232.011 113.303C235.877 112.73 238.66 114.244 240.378 115.676C241.013 116.208 241.545 116.781 241.974 117.292C241.851 113.835 241.115 107.308 237.494 104.014L208.339 76.3945" fill="black"/>
<path d="M199.973 81.0184L234.59 81.0594H235.838C236.144 81.7754 237.147 83.8623 237.474 84.5988C237.617 84.9261 237.556 84.742 237.474 84.6602C237.413 84.5783 237.311 84.5374 237.229 84.4965C236.983 84.4147 236.697 84.4965 236.554 84.7011C236.717 84.3124 237.249 83.3099 237.433 82.9007C238.129 81.489 239.704 78.2974 240.4 76.8652C241.361 78.9725 243.326 83.1257 244.042 84.8034C243.796 84.4351 243.162 84.5579 243.039 84.8648L243.735 83.4531C244.512 81.8777 246.149 78.5429 246.926 76.9471C247.642 78.5633 249.177 81.9391 249.893 83.5349L250.527 84.9466C250.404 84.6806 250.057 84.5988 249.709 84.6602C249.668 84.6602 249.647 84.6602 249.627 84.6806L249.832 84.6192C249.668 84.6602 249.525 84.7625 249.443 84.9057L249.586 84.6397C250.343 83.1667 251.509 80.8343 252.307 79.3817C252.471 79.4431 262.782 81.6118 263.294 81.755C263.314 81.7754 253.289 83.494 253.31 83.494C253.269 83.5349 255.212 82.3074 255.049 82.4915C254.476 83.5554 253.412 85.7241 252.86 86.7675C252.164 87.995 251.12 88.3428 250.241 88.5065C248.89 88.6906 247.438 87.6881 247.008 86.5424L246.374 85.1307L245.085 82.2869L248.584 82.3483L247.192 85.1716C246.497 86.7879 245.576 88.5474 243.448 88.4451C242.323 88.4247 241.239 87.77 240.686 86.7675C240.584 86.5833 239.97 85.2535 239.868 85.0284L238.559 82.1846L242.057 82.2255L240.87 84.6192C240.686 85.008 240.175 86.0309 239.991 86.4197C239.131 88.4656 236.083 88.9975 234.61 87.2789C233.833 86.3787 233.321 84.7215 232.81 83.7804L234.569 84.9057L199.952 84.8648V80.9775L199.973 81.0184Z" fill="black"/>
<path d="M203.467 88.0159L168.134 54.6266C164.308 51.0053 162.16 45.9314 162.201 40.653L161.792 35.1699L210.117 80.9166" fill="black"/>
<path d="M203.957 87.8525L173.33 87.9548C173.33 87.9548 173.146 87.9139 173.084 87.832C173.023 87.7502 173.023 87.6275 173.084 87.5456L174.455 85.3156C174.66 84.8859 174.619 84.3745 174.353 83.9857C174.107 83.6175 173.678 83.3924 173.248 83.3924L159.499 83.4333C158.763 83.4333 158.17 84.0266 158.19 84.7632V87.7707C158.19 87.8934 158.108 87.9957 157.985 87.9957C154.507 87.9957 151.336 85.9703 149.884 82.8196C149.495 81.6943 149.249 80.7327 149.331 80.119L203.957 79.6279" fill="black"/>
<path d="M191.685 103.278L187.081 98.0203L204.41 82.7987L202.548 80.6914C197.29 85.2743 171.675 107.718 165.886 112.771C165.865 112.792 165.845 112.812 165.804 112.833H165.824C169.548 117.661 175.235 117.682 178.713 114.633L191.603 103.381L191.705 103.34V103.299L191.746 103.237L191.644 103.278H191.685Z" fill="black"/>
<path d="M201.14 79.8726V39.8341C201.14 30.832 203.656 22.055 208.403 14.4033C213.149 22.055 215.666 30.832 215.666 39.8341V79.8726" fill="black"/>
<mask id="mask0_99_296" style="mask-type:luminance" maskUnits="userSpaceOnUse" x="138" y="0" width="137" height="136">
<path d="M206.315 136C243.871 136 274.315 105.555 274.315 68C274.315 30.4446 243.871 0 206.315 0C168.76 0 138.315 30.4446 138.315 68C138.315 105.555 168.76 136 206.315 136Z" fill="white"/>
</mask>
<g mask="url(#mask0_99_296)">
<path d="M208.399 154.795C202.057 154.795 196.901 149.639 196.901 143.297V77.8887C196.901 71.5463 202.057 66.3906 208.399 66.3906C214.742 66.3906 219.897 71.5463 219.897 77.8887V143.297C219.897 149.639 214.742 154.795 208.399 154.795Z" fill="black"/>
<path d="M208.399 67.5774C214.086 67.5774 218.71 72.2012 218.71 77.8888V143.297C218.71 148.984 214.086 153.608 208.399 153.608C202.711 153.608 198.087 148.984 198.087 143.297V77.8888C198.087 72.2012 202.711 67.5774 208.399 67.5774ZM208.399 65.2246C201.402 65.2246 195.714 70.9123 195.714 77.9093V143.317C195.714 150.314 201.402 156.002 208.399 156.002C215.396 156.002 221.083 150.314 221.083 143.317V77.9093C221.083 70.9123 215.396 65.2246 208.399 65.2246Z" fill="white"/>
<path d="M208.399 81.0803C210.41 81.0803 212.04 79.4499 212.04 77.4386C212.04 75.4273 210.41 73.7969 208.399 73.7969C206.387 73.7969 204.757 75.4273 204.757 77.4386C204.757 79.4499 206.387 81.0803 208.399 81.0803Z" fill="white"/>
</g>
</svg>
