<?xml version="1.0" encoding="UTF-8"?>
<svg id="Layer_1" data-name="Layer 1" xmlns="http://www.w3.org/2000/svg" viewBox="0 0 1007 136">
  <defs>
    <style>
      .cls-1 {
        fill: #fff;
      }
    </style>
  </defs>
  <g>
    <circle class="cls-1" cx="63.12" cy="68" r="62.82"/>
    <g>
      <polygon points="94.22 73.72 59.21 93.54 40.09 22.51 94.22 73.72"/>
      <polygon points="52.31 84.14 47.84 87.15 25.11 35.22 42.28 47.37 52.31 84.14"/>
      <polygon points="55.36 95.83 27.7 111.38 53.34 87.88 55.36 95.83"/>
      <polygon points="98.39 49.19 97.79 71.39 86.03 60.29 98.39 49.19"/>
      <polygon points="119.59 51.78 102.27 62.13 102.67 48.3 119.59 51.78"/>
    </g>
  </g>
  <g>
    <path class="cls-1" d="M262.63,72.42c0,32.9-22.7,52.09-50.01,52.09-30.89,0-55.21-24.45-55.21-54.36s24.45-54.69,54.43-54.69c13.59.13,28.09,6.37,38.37,16.39l-11.71,17.49c-8.19-8-17.56-12.55-26.92-12.55-16.26,0-32.71,13.79-32.71,33.36,0,18.21,14.18,33.16,34.66,33.16,14.96,0,25.69-7.67,26.4-20.29h-27.12v-19.44h49.29c.33,3.06.52,5.98.52,8.84Z"/>
    <path class="cls-1" d="M271.74,70.15c0-30.11,24.52-54.69,54.49-54.69s54.56,24.58,54.56,54.69-24.58,54.3-54.62,54.3-54.43-24.45-54.43-54.3ZM359.46,70.02c0-18.34-14.96-33.29-33.29-33.29s-33.16,14.96-33.16,33.29,14.89,33.1,33.16,33.1,33.29-14.89,33.29-33.1Z"/>
    <path class="cls-1" d="M394.45,17.6h36.81c20.29,0,36.87,15.93,36.87,35.44s-16.58,35.31-36.87,35.31h-15.74v34.08h-21.07V17.6ZM447.05,52.85c0-7.93-7.09-14.37-15.8-14.37h-15.74v29l15.74.07c8.71.07,15.8-6.57,15.8-14.7Z"/>
    <path class="cls-1" d="M479.96,17.6h21.07v104.83h-21.07V17.6Z"/>
    <path class="cls-1" d="M514.68,70.08c0-29.59,24.91-54.62,54.43-54.62,13.66.2,25.75,5.59,36.74,16.19l-12.16,16.58c-7.15-7.02-15.74-11.32-24.78-11.32-16.84,0-32.91,14.96-32.91,33.29s16.65,33.1,32.84,33.1c9.62,0,17.95-5.14,24.91-11.97l12.1,17.04c-9.23,9.17-20.48,16.06-36.35,16.06-30.24,0-54.82-24.91-54.82-54.36Z"/>
    <path class="cls-1" d="M697.35,17.6v104.83h-21v-42.01h-37.65v42.01h-21V17.6h21v41.94h37.65V17.6h21Z"/>
    <path class="cls-1" d="M779.22,107.8h-41.94l-6.7,14.63h-22.76l50.07-107.43h.65l50.14,107.43h-22.82l-6.63-14.63ZM771.03,89.85l-12.75-28.03-12.81,28.03h25.56Z"/>
    <path class="cls-1" d="M903.43,17.34v107.04h-.97l-62.23-60.54v58.72h-21.07V15.65h1.04l62.1,60.41V17.34h21.14Z"/>
    <path class="cls-1" d="M1006.69,70.15c0,32.51-20.68,52.28-54.56,52.28h-30.5V17.67l30.5-.07c33.88-.07,54.56,19.83,54.56,52.54ZM985.43,70.08c0-19.64-12.62-31.6-33.36-31.6h-9.43v62.95h9.62c20.61,0,33.17-11.84,33.17-31.34Z"/>
  </g>
</svg>