<?xml version="1.0" encoding="UTF-8"?>
<svg id="Layer_1" data-name="Layer 1" xmlns="http://www.w3.org/2000/svg" xmlns:xlink="http://www.w3.org/1999/xlink" viewBox="0 0 581.08 574.62">
  <defs>
    <style>
      .cls-1, .cls-2 {
        fill: #fff;
      }

      .cls-2 {
        fill-rule: evenodd;
      }

      .cls-3 {
        opacity: .2;
      }

      .cls-4 {
        fill: url(#linear-gradient);
      }
    </style>
    <linearGradient id="linear-gradient" x1="89.8" y1="86.57" x2="491.28" y2="488.06" gradientUnits="userSpaceOnUse">
      <stop offset="0" stop-color="#fff"/>
      <stop offset="1" stop-color="#fff" stop-opacity="0"/>
    </linearGradient>
  </defs>
  <path class="cls-4" d="M290.54,6.42c37.92,0,74.71,7.43,109.34,22.07,33.45,14.15,63.49,34.4,89.29,60.2,25.8,25.8,46.05,55.84,60.2,89.29,14.65,34.63,22.07,71.41,22.07,109.34s-7.43,74.71-22.07,109.34c-14.15,33.45-34.4,63.49-60.2,89.29-25.8,25.8-55.84,46.05-89.29,60.2-34.63,14.65-71.41,22.07-109.34,22.07s-74.71-7.43-109.34-22.07c-33.45-14.15-63.49-34.4-89.29-60.2-25.8-25.8-46.05-55.84-60.2-89.29-14.65-34.63-22.07-71.41-22.07-109.34s7.43-74.71,22.07-109.34c14.15-33.45,34.4-63.49,60.2-89.29,25.8-25.8,55.84-46.05,89.29-60.2,34.63-14.65,71.41-22.07,109.34-22.07M290.54,3.42C133.75,3.42,6.65,130.52,6.65,287.31s127.1,283.89,283.89,283.89,283.89-127.1,283.89-283.89S447.33,3.42,290.54,3.42h0Z"/>
  <circle class="cls-3" cx="290.54" cy="287.31" r="283.89"/>
  <g>
    <g>
      <path class="cls-1" d="M238.1,79.78l-11.21-22.55,2.93-.58,8.8,18.43.23-.05,1.25-20.41,3.26-.64,8.9,18.41.23-.05,1.16-20.39,2.93-.58-1.82,25.12-2.98.59-9-17.96-.19.04-1.52,20.03-2.98.59Z"/>
      <path class="cls-1" d="M265.28,75.18l-3.08.22,7.19-24.86,3.03-.21,10.61,23.61-3.08.22-8.68-19.89h-.19s-5.8,20.92-5.8,20.92ZM265.75,65.63l12.4-.88.18,2.6-12.4.87-.18-2.6Z"/>
      <path class="cls-1" d="M285.57,52.28l.07-2.61,18.21.52-.08,2.61-7.64-.22-.62,21.67-2.94-.08.62-21.68-7.64-.22Z"/>
      <path class="cls-1" d="M328.65,60.8l-2.92-.39c-.06-.86-.26-1.64-.61-2.33-.34-.69-.79-1.3-1.34-1.81-.55-.52-1.18-.93-1.89-1.25-.71-.32-1.46-.53-2.26-.64-1.46-.19-2.83,0-4.1.58-1.28.58-2.36,1.54-3.24,2.88-.88,1.34-1.47,3.06-1.74,5.14-.28,2.09-.17,3.89.34,5.42s1.3,2.74,2.38,3.63c1.08.89,2.35,1.44,3.81,1.63.8.11,1.58.1,2.35-.02s1.48-.36,2.15-.71,1.25-.82,1.77-1.4c.51-.58.91-1.28,1.19-2.09l2.92.39c-.38,1.2-.93,2.25-1.64,3.15s-1.54,1.62-2.49,2.19c-.95.56-1.99.95-3.11,1.16-1.12.21-2.28.23-3.5.07-2.05-.27-3.81-1.02-5.28-2.23-1.47-1.22-2.54-2.81-3.21-4.78-.67-1.97-.84-4.23-.5-6.77.34-2.54,1.09-4.67,2.25-6.4s2.61-2.99,4.34-3.78c1.73-.79,3.63-1.05,5.68-.78,1.21.16,2.33.49,3.36.98,1.02.5,1.92,1.14,2.69,1.93.77.79,1.38,1.71,1.84,2.76.45,1.05.7,2.2.76,3.47Z"/>
      <path class="cls-1" d="M330.51,78.18l5.88-23.57,2.85.71-2.62,10.5,12.57,3.14,2.62-10.5,2.85.71-5.89,23.57-2.85-.71,2.63-10.54-12.57-3.14-2.63,10.54-2.85-.71Z"/>
      <path class="cls-1" d="M390.67,79.88c.38-1.15.25-2.24-.39-3.27-.64-1.03-1.62-1.86-2.95-2.48-.97-.45-1.9-.69-2.77-.72-.87-.02-1.64.15-2.3.51s-1.16.9-1.49,1.6c-.28.59-.37,1.16-.28,1.71.09.55.29,1.07.61,1.55.31.48.67.93,1.08,1.33.41.4.79.75,1.15,1.05l1.95,1.65c.5.42,1.04.93,1.63,1.52.58.6,1.09,1.27,1.53,2.03.44.76.7,1.59.79,2.5.09.91-.1,1.88-.59,2.91-.55,1.19-1.37,2.12-2.43,2.79-1.07.67-2.33,1.01-3.78,1.03-1.45.01-3.02-.38-4.71-1.17-1.58-.74-2.82-1.63-3.73-2.67-.91-1.05-1.48-2.18-1.71-3.39-.23-1.22-.11-2.45.37-3.69l2.75,1.28c-.32.86-.35,1.68-.12,2.45s.67,1.46,1.31,2.08,1.39,1.13,2.26,1.53c1.02.48,2.01.73,2.98.78.96.04,1.82-.12,2.58-.5s1.31-.97,1.69-1.77c.34-.73.42-1.42.22-2.07-.19-.65-.56-1.27-1.09-1.87-.53-.6-1.14-1.18-1.81-1.76l-2.35-2.04c-1.49-1.3-2.52-2.64-3.1-4.02-.58-1.39-.52-2.82.18-4.3.57-1.23,1.41-2.15,2.51-2.76s2.34-.9,3.71-.89c1.37.02,2.76.35,4.17,1.01,1.42.66,2.56,1.5,3.43,2.52.87,1.02,1.42,2.12,1.66,3.3.24,1.18.12,2.33-.36,3.46l-2.58-1.2Z"/>
      <path class="cls-1" d="M389.62,99.71l12.54-20.81,2.52,1.52-5.58,9.27,11.1,6.68,5.58-9.27,2.52,1.52-12.54,20.81-2.52-1.52,5.61-9.31-11.1-6.68-5.61,9.31-2.52-1.52Z"/>
      <path class="cls-1" d="M433.71,115.23c-1.56,2.03-3.28,3.5-5.15,4.42s-3.76,1.28-5.65,1.1c-1.9-.18-3.67-.91-5.31-2.17-1.64-1.26-2.79-2.79-3.45-4.58-.66-1.79-.79-3.7-.38-5.74.41-2.04,1.39-4.08,2.95-6.11,1.56-2.03,3.28-3.5,5.15-4.42,1.87-.91,3.76-1.28,5.65-1.1,1.9.18,3.66.91,5.31,2.17,1.64,1.26,2.79,2.79,3.45,4.58.66,1.79.79,3.7.38,5.74-.41,2.04-1.39,4.08-2.95,6.11ZM431.46,113.49c1.28-1.67,2.09-3.29,2.42-4.86.33-1.57.25-3.02-.24-4.33-.49-1.32-1.32-2.42-2.48-3.32s-2.45-1.41-3.84-1.55c-1.4-.14-2.81.15-4.25.87s-2.8,1.91-4.08,3.58c-1.28,1.67-2.09,3.29-2.42,4.86-.33,1.57-.25,3.02.24,4.33.49,1.32,1.32,2.42,2.48,3.32s2.45,1.41,3.84,1.55c1.4.14,2.81-.15,4.25-.87,1.44-.72,2.8-1.91,4.08-3.58Z"/>
      <path class="cls-1" d="M432.69,130.66l12.5-21.87,2.11,2.12-10.41,17.57.17.17,17.66-10.32,2.35,2.35-10.35,17.64.17.17,17.59-10.39,2.11,2.12-21.88,12.46-2.15-2.15,9.91-17.47-.13-.13-17.49,9.88-2.15-2.15Z"/>
      <path class="cls-1" d="M451.03,149.91l19.13-14.98,5.06,6.46c1.17,1.49,1.88,2.92,2.12,4.28.24,1.36.1,2.61-.42,3.76-.52,1.15-1.35,2.17-2.48,3.05-1.13.88-2.31,1.43-3.54,1.66s-2.47.05-3.71-.52c-1.24-.56-2.44-1.59-3.6-3.07l-4.09-5.23,2.09-1.64,4.04,5.16c.8,1.02,1.59,1.73,2.38,2.12.79.39,1.57.51,2.34.37.77-.15,1.54-.52,2.31-1.12.77-.6,1.32-1.27,1.67-2,.35-.74.43-1.54.26-2.42-.18-.88-.67-1.83-1.48-2.86l-3.19-4.07-17.07,13.37-1.81-2.32ZM466.67,152.19l-4.91,11.43-2.11-2.69,4.97-11.36,2.05,2.62Z"/>
      <path class="cls-1" d="M463.63,166.46l20.45-13.11,7.91,12.34-2.2,1.41-6.33-9.87-6.91,4.43,5.92,9.23-2.2,1.41-5.92-9.23-6.95,4.46,6.43,10.03-2.2,1.41-8.02-12.5Z"/>
      <path class="cls-1" d="M473.91,182.95l21.56-11.2,6.76,13.01-2.32,1.2-5.4-10.4-7.28,3.78,5.05,9.73-2.32,1.2-5.05-9.73-7.33,3.8,5.49,10.57-2.32,1.2-6.84-13.18Z"/>
      <path class="cls-1" d="M482.65,200.36l22.47-9.23,1.12,2.72-20.06,8.24,4.29,10.45-2.41.99-5.41-13.17Z"/>
    </g>
    <g>
      <path class="cls-1" d="M492.2,348.74l25.13,1.62-.97,2.83-20.36-1.63-.08.22,17.03,11.32-1.08,3.14-20.39-1.54-.08.22,17.06,11.23-.97,2.83-20.81-14.18.99-2.87,20.05,1.22.06-.18-16.56-11.37.99-2.87Z"/>
      <path class="cls-1" d="M482.56,374.54l1.36-2.77,17.88,18.71-1.34,2.73-25.74-2.69,1.36-2.77,21.56,2.49.08-.17-15.16-15.52ZM490.57,379.75l-5.47,11.16-2.34-1.15,5.47-11.16,2.34,1.15Z"/>
      <path class="cls-1" d="M492.15,403.61l2.21,1.38-9.63,15.47-2.21-1.38,4.04-6.48-18.41-11.46,1.55-2.5,18.41,11.46,4.04-6.48Z"/>
      <path class="cls-1" d="M463.04,436.54l1.8-2.32c.78.38,1.55.6,2.32.65s1.52-.03,2.24-.24c.72-.22,1.4-.55,2.03-1,.63-.45,1.19-.99,1.69-1.63.9-1.16,1.43-2.44,1.57-3.84.14-1.4-.14-2.81-.85-4.25-.71-1.44-1.9-2.81-3.56-4.1-1.66-1.29-3.28-2.11-4.85-2.44s-3.02-.26-4.33.22-2.43,1.31-3.33,2.47c-.49.64-.88,1.32-1.16,2.04-.28.72-.44,1.46-.47,2.21-.03.75.08,1.5.32,2.23.24.74.64,1.43,1.2,2.08l-1.8,2.32c-.84-.94-1.47-1.94-1.89-3-.41-1.06-.62-2.15-.63-3.26,0-1.11.18-2.19.57-3.27.38-1.07.95-2.09,1.7-3.06,1.27-1.64,2.8-2.78,4.59-3.43,1.79-.65,3.7-.77,5.75-.35,2.04.42,4.07,1.41,6.1,2.98,2.02,1.57,3.49,3.3,4.39,5.17.91,1.88,1.26,3.76,1.07,5.66-.19,1.89-.92,3.66-2.19,5.3-.75.97-1.6,1.77-2.55,2.4s-1.95,1.08-3.03,1.35c-1.08.27-2.18.33-3.31.19s-2.26-.5-3.38-1.1Z"/>
      <path class="cls-1" d="M447.12,429.34l17.4,16.95-2.05,2.11-7.75-7.55-9.04,9.28,7.75,7.55-2.05,2.11-17.4-16.96,2.05-2.11,7.78,7.58,9.04-9.28-7.78-7.58,2.05-2.11Z"/>
      <path class="cls-1" d="M415.4,480.51c.81.9,1.81,1.34,3.02,1.31,1.21-.03,2.42-.47,3.63-1.31.88-.61,1.55-1.29,2.01-2.04.46-.75.7-1.49.72-2.25.02-.75-.19-1.45-.64-2.09-.37-.53-.82-.9-1.34-1.1-.52-.2-1.07-.29-1.64-.26-.58.03-1.14.12-1.69.27-.55.15-1.05.3-1.48.46l-2.4.87c-.61.23-1.32.44-2.13.65-.81.21-1.65.31-2.52.3s-1.73-.19-2.56-.57c-.83-.38-1.57-1.03-2.22-1.97-.75-1.08-1.15-2.25-1.19-3.51-.04-1.26.29-2.52,1.01-3.78.72-1.26,1.84-2.43,3.37-3.49,1.43-.99,2.82-1.62,4.19-1.89,1.36-.26,2.63-.19,3.79.22,1.17.41,2.17,1.13,3.01,2.17l-2.49,1.74c-.59-.71-1.28-1.15-2.06-1.33-.79-.18-1.6-.15-2.45.09-.85.24-1.67.64-2.46,1.19-.92.64-1.64,1.37-2.17,2.18-.52.81-.81,1.64-.86,2.48s.18,1.62.68,2.35c.46.66,1.02,1.07,1.68,1.23.66.16,1.38.16,2.17,0,.78-.16,1.59-.39,2.43-.68l2.94-1.01c1.87-.64,3.55-.86,5.03-.66,1.49.2,2.7.97,3.63,2.31.78,1.12,1.15,2.3,1.13,3.56-.03,1.26-.39,2.47-1.1,3.66s-1.69,2.21-2.97,3.1c-1.28.9-2.59,1.46-3.9,1.7-1.32.24-2.55.17-3.68-.22-1.14-.38-2.07-1.06-2.81-2.05l2.34-1.63Z"/>
      <path class="cls-1" d="M398.78,469.66l11.72,21.28-2.58,1.42-5.22-9.48-11.34,6.25,5.22,9.48-2.58,1.42-11.72-21.28,2.58-1.42,5.24,9.52,11.35-6.25-5.24-9.52,2.58-1.42Z"/>
      <path class="cls-1" d="M363.19,500.04c-.97-2.37-1.38-4.6-1.23-6.67.15-2.08.78-3.89,1.89-5.44,1.11-1.55,2.62-2.72,4.54-3.5,1.92-.79,3.81-1.01,5.69-.69,1.88.32,3.6,1.18,5.16,2.55s2.83,3.25,3.8,5.62c.97,2.37,1.38,4.6,1.23,6.67-.15,2.08-.78,3.89-1.89,5.44-1.11,1.55-2.62,2.72-4.54,3.5-1.92.79-3.82,1.01-5.69.69-1.88-.33-3.6-1.18-5.16-2.55-1.56-1.38-2.83-3.25-3.8-5.62ZM365.82,498.96c.8,1.95,1.79,3.46,2.99,4.53s2.49,1.73,3.87,1.97c1.38.24,2.76.08,4.12-.48,1.36-.56,2.45-1.41,3.27-2.54.82-1.14,1.28-2.51,1.38-4.12.1-1.61-.25-3.38-1.05-5.33-.8-1.95-1.79-3.46-2.99-4.53-1.2-1.07-2.48-1.73-3.87-1.97-1.38-.24-2.75-.08-4.12.48-1.36.56-2.45,1.41-3.27,2.54-.82,1.14-1.28,2.51-1.38,4.12-.1,1.61.25,3.38,1.05,5.33Z"/>
      <path class="cls-1" d="M350.42,491.38l12.61,21.8-2.89.76-9.95-17.84-.23.06.04,20.45-3.21.85-10.04-17.82-.23.06.13,20.43-2.89.76.24-25.19,2.94-.77,10.12,17.35.18-.05.25-20.09,2.94-.77Z"/>
      <path class="cls-1" d="M314.68,509.9l-7.4-10.01,3.38-.46,7.31,10.02-3.29.45ZM324.53,497.54l3.28,24.07-8.13,1.11c-1.88.26-3.47.15-4.76-.33s-2.31-1.23-3.04-2.26-1.19-2.26-1.39-3.68c-.19-1.42-.08-2.71.36-3.89.43-1.18,1.2-2.16,2.32-2.94,1.11-.79,2.6-1.31,4.47-1.56l6.58-.9.36,2.63-6.49.88c-1.28.18-2.29.51-3.03.99-.74.48-1.24,1.1-1.5,1.84-.26.74-.33,1.6-.2,2.56.13.96.43,1.78.88,2.45.46.67,1.11,1.15,1.96,1.44.84.29,1.92.34,3.22.17l5.12-.7-2.93-21.49,2.91-.4Z"/>
      <path class="cls-1" d="M303.89,500.07l1,24.27-14.65.6-.11-2.61,11.71-.48-.34-8.2-10.95.45-.11-2.61,10.95-.45-.34-8.25-11.9.49-.11-2.61,14.84-.61Z"/>
      <path class="cls-1" d="M284.52,500.7l-1.42,24.25-14.64-.86.15-2.61,11.7.69.48-8.19-10.94-.64.15-2.61,10.94.64.48-8.24-11.89-.7.15-2.61,14.83.87Z"/>
    </g>
    <g>
      <path class="cls-1" d="M141.17,442.4l-12.74,21.72-2.09-2.14,10.61-17.46-.17-.17-17.77,10.12-2.32-2.38,10.55-17.52-.17-.17-17.7,10.19-2.09-2.14,22.02-12.22,2.12,2.17-10.11,17.36.13.14,17.6-9.69,2.12,2.17Z"/>
      <path class="cls-1" d="M122.44,422.18l1.87,2.46-24.74,7.58-1.84-2.42,13.96-21.79,1.87,2.46-11.9,18.15.12.15,20.68-6.58ZM114.19,427.01l-7.52-9.9,2.08-1.58,7.52,9.9-2.08,1.58Z"/>
      <path class="cls-1" d="M92.18,417.73l-2.23,1.36-9.5-15.55,2.23-1.36,3.98,6.52,18.51-11.3,1.53,2.51-18.51,11.3,3.98,6.52Z"/>
      <path class="cls-1" d="M75.83,376.88l1.26,2.66c-.69.52-1.23,1.11-1.63,1.78-.39.66-.66,1.37-.79,2.11s-.14,1.5-.02,2.26c.12.77.35,1.51.7,2.24.63,1.33,1.54,2.37,2.72,3.13,1.18.76,2.58,1.14,4.18,1.15,1.61.01,3.36-.43,5.26-1.33,1.9-.9,3.35-1.98,4.36-3.23,1.01-1.25,1.59-2.58,1.75-3.97s-.07-2.76-.7-4.08c-.35-.73-.78-1.38-1.3-1.96s-1.11-1.05-1.77-1.41c-.66-.37-1.37-.6-2.14-.72s-1.57-.07-2.4.13l-1.26-2.66c1.22-.33,2.39-.44,3.53-.34,1.14.11,2.2.41,3.19.9s1.88,1.15,2.66,1.97c.78.82,1.44,1.79,1.96,2.9.89,1.87,1.22,3.75,1,5.64-.22,1.89-.98,3.66-2.27,5.29-1.29,1.64-3.09,3-5.41,4.1-2.32,1.1-4.51,1.63-6.6,1.59-2.08-.04-3.93-.57-5.53-1.59-1.61-1.02-2.85-2.47-3.74-4.34-.53-1.11-.86-2.23-1-3.35s-.09-2.23.16-3.31c.25-1.08.68-2.09,1.32-3.04.63-.95,1.46-1.79,2.5-2.52Z"/>
      <path class="cls-1" d="M89.43,365.92l-22.98,7.89-.96-2.78,10.23-3.51-4.21-12.25-10.23,3.51-.96-2.78,22.98-7.89.96,2.78-10.28,3.53,4.21,12.25,10.28-3.53.96,2.78Z"/>
      <path class="cls-1" d="M58.03,314.54c-1.17.31-2.01,1.01-2.53,2.11-.51,1.1-.67,2.37-.46,3.83.15,1.06.46,1.97.92,2.71.46.75,1.02,1.3,1.69,1.65.67.36,1.38.48,2.15.37.64-.09,1.17-.32,1.58-.7.41-.37.74-.83.97-1.35s.41-1.07.52-1.63.2-1.07.25-1.53l.31-2.54c.08-.65.2-1.38.38-2.19.18-.81.47-1.61.86-2.39.4-.78.95-1.46,1.66-2.03.71-.57,1.63-.94,2.75-1.1,1.3-.19,2.52-.01,3.67.51s2.12,1.39,2.92,2.6,1.34,2.73,1.6,4.58c.25,1.72.18,3.25-.2,4.59-.38,1.34-1.01,2.43-1.9,3.29-.89.86-1.99,1.43-3.29,1.71l-.43-3.01c.9-.21,1.6-.62,2.12-1.24s.86-1.36,1.02-2.23c.17-.87.18-1.78.05-2.73-.16-1.11-.48-2.08-.97-2.92-.49-.83-1.1-1.46-1.83-1.88-.73-.42-1.53-.57-2.41-.45-.8.11-1.42.43-1.85.95-.44.52-.76,1.16-.97,1.94-.21.77-.37,1.6-.48,2.48l-.42,3.08c-.27,1.96-.83,3.55-1.68,4.79-.85,1.24-2.08,1.98-3.7,2.21-1.35.19-2.57,0-3.69-.59-1.11-.59-2.03-1.46-2.77-2.62-.74-1.16-1.22-2.51-1.43-4.04-.22-1.55-.14-2.97.24-4.25.38-1.28,1-2.35,1.85-3.19.85-.85,1.88-1.37,3.09-1.59l.4,2.82Z"/>
      <path class="cls-1" d="M75.2,304.61l-24.28.9-.11-2.94,10.81-.4-.48-12.94-10.81.4-.11-2.94,24.28-.9.11,2.94-10.86.4.48,12.94,10.86-.4.11,2.94Z"/>
      <path class="cls-1" d="M64.08,259.18c2.55.2,4.73.83,6.51,1.9,1.79,1.07,3.12,2.45,4.01,4.13s1.24,3.56,1.08,5.63c-.16,2.07-.81,3.86-1.94,5.39-1.14,1.53-2.67,2.68-4.6,3.46-1.93.78-4.18,1.07-6.73.87-2.55-.2-4.73-.83-6.51-1.9-1.79-1.07-3.12-2.45-4.01-4.13s-1.24-3.56-1.08-5.63c.16-2.07.81-3.86,1.94-5.39,1.14-1.53,2.67-2.68,4.6-3.46,1.93-.78,4.18-1.07,6.73-.87ZM63.85,262.02c-2.1-.16-3.89.05-5.39.63-1.5.59-2.66,1.44-3.5,2.57-.83,1.13-1.31,2.43-1.42,3.89-.11,1.47.15,2.82.8,4.07.65,1.24,1.67,2.27,3.05,3.08,1.39.81,3.13,1.3,5.23,1.46,2.1.16,3.89-.05,5.39-.63,1.5-.58,2.66-1.44,3.5-2.57.83-1.13,1.31-2.43,1.42-3.89.11-1.47-.15-2.82-.8-4.07-.65-1.24-1.67-2.27-3.06-3.08-1.39-.81-3.13-1.3-5.23-1.46Z"/>
      <path class="cls-1" d="M77.56,251.63l-25.14,1.45.62-2.92,20.41-.85.05-.23-18.28-9.17.69-3.25,20.43-.95.05-.23-18.3-9.08.62-2.92,22.38,11.55-.63,2.97-20.05,1.22-.04.19,17.82,9.27-.63,2.97Z"/>
      <path class="cls-1" d="M83.7,225.78l-22.98-7.89,2.67-7.76c.62-1.8,1.43-3.16,2.43-4.11s2.13-1.51,3.39-1.7c1.25-.19,2.55-.05,3.91.41,1.35.47,2.46,1.15,3.32,2.07.86.91,1.39,2.04,1.59,3.39.2,1.35,0,2.91-.61,4.69l-2.16,6.28-2.51-.86,2.13-6.19c.42-1.23.58-2.28.48-3.15-.1-.87-.42-1.6-.97-2.16-.54-.57-1.28-1.01-2.2-1.33-.92-.32-1.78-.42-2.59-.31-.81.11-1.53.47-2.17,1.1s-1.17,1.56-1.6,2.8l-1.68,4.89,20.51,7.04-.96,2.78ZM77.09,211.42l12.26-2.11-1.11,3.23-12.23,2.02,1.08-3.14Z"/>
      <path class="cls-1" d="M90.74,206.17l-22.13-10.02,6.05-13.36,2.38,1.08-4.83,10.68,7.48,3.39,4.52-9.99,2.38,1.08-4.52,9.98,7.52,3.4,4.91-10.85,2.38,1.08-6.13,13.53Z"/>
      <path class="cls-1" d="M98.98,188.56l-21.13-11.98,7.23-12.75,2.27,1.29-5.78,10.19,7.14,4.05,5.41-9.53,2.27,1.29-5.41,9.53,7.18,4.07,5.88-10.36,2.27,1.29-7.33,12.92Z"/>
      <path class="cls-1" d="M108.8,171.76l-20-13.79,1.67-2.42,17.85,12.31,6.41-9.3,2.15,1.48-8.08,11.72Z"/>
    </g>
    <path class="cls-2" d="M142.05,109.01c6.7-1.86,14.5-3.59,23.38,5.85-6.06-11.46-1.89-18.27,2.04-24.01-6.7,1.86-14.5,3.59-23.38-5.85,6.06,11.46,1.89,18.27-2.04,24.01Z"/>
    <path class="cls-2" d="M514.65,293.08c1.53-6.78,3.69-14.48,16.21-17.84-12.96-.08-17-6.97-20.2-13.14-1.53,6.78-3.69,14.48-16.21,17.84,12.96.08,17,6.97,20.2,13.14Z"/>
    <path class="cls-2" d="M202.82,497.49c-5.49-4.27-11.54-9.49-9.27-22.25-5.57,11.7-13.53,12.43-20.48,12.71,5.49,4.27,11.54,9.49,9.27,22.25,5.57-11.7,13.53-12.43,20.48-12.71Z"/>
    <path class="cls-1" d="M263.19,500.03l-3.11,24.09-2.92-.38,2.78-21.51-11.2-1.45.33-2.59,14.12,1.82Z"/>
  </g>
</svg>