<svg width="582" height="575" viewBox="0 0 582 575" fill="none" xmlns="http://www.w3.org/2000/svg">
<path d="M227.14 36.4099L213.59 9.13995L217.14 8.43995L227.78 30.7299L228.06 30.6799L229.57 5.99995L233.51 5.21995L244.27 27.4799L244.55 27.4299L245.95 2.76995L249.5 2.06995L247.29 32.4399L243.69 33.1499L232.81 11.4399L232.58 11.4799L230.74 35.6999L227.14 36.4099Z" fill="white"/>
<path d="M260 30.84L256.28 31.1L264.97 1.04003L268.63 0.780029L281.45 29.32L277.73 29.58L267.23 5.53003L267 5.55003L259.98 30.83L260 30.84ZM260.56 19.3L275.55 18.24L275.77 21.39L260.78 22.45L260.56 19.3Z" fill="white"/>
<path d="M284.53 3.15L284.62 0L306.64 0.63L306.55 3.78L297.32 3.52L296.57 29.72L293.01 29.62L293.76 3.41L284.53 3.14V3.15Z" fill="white"/>
<path d="M336.62 13.46L333.1 12.99C333.03 11.95 332.78 11.01 332.37 10.17C331.96 9.33003 331.42 8.60003 330.75 7.98003C330.08 7.36003 329.32 6.85003 328.47 6.47003C327.62 6.09003 326.7 5.83003 325.74 5.70003C323.98 5.47003 322.32 5.70003 320.78 6.40003C319.23 7.10003 317.93 8.26003 316.86 9.89003C315.79 11.51 315.09 13.58 314.75 16.11C314.41 18.63 314.55 20.81 315.16 22.66C315.77 24.51 316.73 25.97 318.03 27.05C319.34 28.13 320.87 28.79 322.64 29.02C323.61 29.15 324.55 29.14 325.48 28.99C326.41 28.84 327.27 28.56 328.08 28.13C328.89 27.7 329.6 27.14 330.22 26.43C330.84 25.73 331.32 24.89 331.66 23.91L335.18 24.38C334.72 25.83 334.06 27.1 333.2 28.18C332.34 29.26 331.34 30.14 330.19 30.82C329.04 31.5 327.79 31.97 326.44 32.22C325.09 32.47 323.68 32.5 322.21 32.31C319.73 31.98 317.6 31.08 315.83 29.61C314.06 28.14 312.77 26.21 311.95 23.83C311.14 21.45 310.94 18.72 311.34 15.65C311.75 12.58 312.66 10 314.06 7.91003C315.46 5.82003 317.22 4.30003 319.31 3.34003C321.41 2.38003 323.69 2.07003 326.18 2.40003C327.65 2.59003 329 2.99003 330.24 3.59003C331.48 4.19003 332.56 4.97003 333.5 5.93003C334.43 6.89003 335.17 8.00003 335.72 9.26003C336.26 10.52 336.57 11.92 336.64 13.45L336.62 13.46Z" fill="white"/>
<path d="M338.869 34.48L345.979 5.97998L349.429 6.83998L346.259 19.53L361.449 23.32L364.619 10.63L368.069 11.49L360.949 39.99L357.499 39.13L360.679 26.38L345.489 22.59L342.309 35.34L338.859 34.48H338.869Z" fill="white"/>
<path d="M411.6 36.52C412.06 35.13 411.9 33.81 411.13 32.57C410.36 31.32 409.17 30.33 407.56 29.57C406.38 29.02 405.26 28.73 404.21 28.7C403.15 28.67 402.22 28.88 401.42 29.31C400.62 29.74 400.02 30.39 399.62 31.24C399.29 31.95 399.17 32.64 399.28 33.31C399.38 33.98 399.63 34.6 400.01 35.19C400.39 35.77 400.82 36.31 401.32 36.8C401.81 37.29 402.27 37.71 402.71 38.07L405.07 40.06C405.68 40.57 406.33 41.18 407.04 41.9C407.74 42.62 408.36 43.44 408.89 44.35C409.42 45.27 409.73 46.27 409.85 47.37C409.96 48.47 409.72 49.64 409.14 50.89C408.47 52.33 407.49 53.45 406.2 54.26C404.91 55.07 403.39 55.48 401.63 55.5C399.87 55.51 397.98 55.04 395.93 54.09C394.02 53.2 392.52 52.12 391.42 50.86C390.32 49.6 389.63 48.23 389.35 46.76C389.07 45.29 389.22 43.8 389.8 42.3L393.13 43.85C392.75 44.9 392.7 45.88 392.99 46.81C393.28 47.74 393.8 48.58 394.57 49.32C395.34 50.06 396.25 50.68 397.3 51.17C398.53 51.74 399.73 52.06 400.9 52.11C402.07 52.16 403.1 51.96 404.01 51.51C404.92 51.06 405.6 50.34 406.05 49.37C406.46 48.49 406.55 47.65 406.32 46.87C406.08 46.08 405.65 45.33 405 44.61C404.36 43.89 403.63 43.18 402.81 42.48L399.97 40.02C398.17 38.45 396.92 36.83 396.23 35.15C395.53 33.47 395.61 31.74 396.44 29.95C397.14 28.46 398.15 27.35 399.48 26.61C400.81 25.87 402.31 25.52 403.97 25.54C405.63 25.56 407.31 25.97 409.01 26.76C410.72 27.56 412.11 28.58 413.16 29.81C414.21 31.04 414.88 32.37 415.17 33.8C415.46 35.22 415.31 36.62 414.73 37.98L411.61 36.52H411.6Z" fill="white"/>
<path d="M410.33 60.5L425.49 35.34L428.54 37.18L421.79 48.38L435.21 56.46L441.96 45.26L445.01 47.1L429.85 72.26L426.8 70.42L433.58 59.17L420.16 51.09L413.38 62.34L410.33 60.5Z" fill="white"/>
<path d="M463.64 79.2701C461.75 81.7201 459.67 83.5001 457.41 84.6101C455.15 85.7201 452.87 86.1601 450.58 85.9401C448.29 85.7201 446.15 84.8401 444.17 83.3201C442.19 81.7901 440.79 79.9501 439.99 77.7901C439.19 75.6301 439.04 73.3201 439.53 70.8501C440.02 68.3801 441.21 65.9201 443.1 63.4601C444.99 61.0101 447.07 59.2301 449.33 58.1201C451.59 57.0101 453.87 56.5701 456.16 56.7901C458.45 57.0101 460.59 57.8901 462.57 59.4101C464.55 60.9401 465.95 62.7801 466.75 64.9401C467.55 67.1001 467.7 69.4101 467.21 71.8901C466.72 74.3601 465.53 76.8201 463.64 79.2801V79.2701ZM460.91 77.1701C462.46 75.1601 463.44 73.2001 463.83 71.2901C464.23 69.3901 464.13 67.6401 463.54 66.0501C462.95 64.4601 461.95 63.1201 460.54 62.0401C459.13 60.9501 457.58 60.3301 455.89 60.1601C454.2 59.9901 452.49 60.3501 450.75 61.2201C449.01 62.0901 447.37 63.5301 445.82 65.5501C444.27 67.5701 443.29 69.5201 442.89 71.4301C442.49 73.3301 442.59 75.0801 443.18 76.6701C443.77 78.2601 444.77 79.6001 446.18 80.6801C447.59 81.7701 449.14 82.3901 450.83 82.5601C452.52 82.7301 454.23 82.3701 455.97 81.5001C457.71 80.6301 459.35 79.1901 460.91 77.1701Z" fill="white"/>
<path d="M462.399 97.92L477.509 71.48L480.069 74.04L467.479 95.29L467.679 95.49L489.029 83.01L491.869 85.85L479.359 107.18L479.559 107.38L500.819 94.82L503.379 97.38L476.919 112.45L474.329 109.85L486.309 88.73L486.149 88.57L465.009 100.52L462.419 97.92H462.399Z" fill="white"/>
<path d="M484.57 121.19L507.7 103.08L513.82 110.89C515.24 112.7 516.09 114.42 516.38 116.06C516.67 117.7 516.5 119.22 515.87 120.61C515.24 122 514.24 123.23 512.88 124.3C511.52 125.37 510.09 126.03 508.6 126.3C507.11 126.57 505.62 126.36 504.12 125.68C502.62 125 501.17 123.76 499.76 121.97L494.81 115.65L497.34 113.67L502.22 119.9C503.19 121.13 504.15 121.99 505.1 122.46C506.05 122.93 507 123.08 507.93 122.9C508.87 122.72 509.8 122.27 510.72 121.54C511.65 120.82 512.32 120.01 512.74 119.12C513.16 118.23 513.26 117.26 513.05 116.2C512.83 115.14 512.24 113.99 511.26 112.74L507.41 107.82L486.77 123.98L484.58 121.18L484.57 121.19ZM503.48 123.95L497.55 137.77L495 134.52L501 120.79L503.47 123.95H503.48Z" fill="white"/>
<path d="M499.8 141.21L524.53 125.36L534.1 140.28L531.44 141.98L523.79 130.05L515.44 135.41L522.59 146.57L519.93 148.27L512.78 137.12L504.38 142.51L512.15 154.63L509.5 156.33L499.81 141.21H499.8Z" fill="white"/>
<path d="M512.229 161.14L538.299 147.61L546.469 163.34L543.669 164.79L537.14 152.21L528.33 156.78L534.44 168.54L531.64 169.99L525.53 158.23L516.669 162.83L523.31 175.61L520.51 177.06L512.24 161.13L512.229 161.14Z" fill="white"/>
<path d="M522.8 182.19L549.97 171.03L551.32 174.32L527.07 184.28L532.26 196.91L529.34 198.11L522.8 182.19Z" fill="white"/>
<path d="M534.35 361.58L564.74 363.53L563.57 366.95L538.95 364.98L538.86 365.25L559.45 378.94L558.14 382.74L533.48 380.88L533.39 381.15L554.02 394.73L552.84 398.15L527.68 381L528.87 377.53L553.11 379.01L553.18 378.79L533.15 365.05L534.34 361.58H534.35Z" fill="white"/>
<path d="M522.69 392.78L524.33 389.43L545.95 412.05L544.33 415.34L513.21 412.09L514.85 408.74L540.91 411.75L541.01 411.54L522.68 392.77L522.69 392.78ZM532.38 399.06L525.76 412.55L522.93 411.16L529.55 397.67L532.38 399.06Z" fill="white"/>
<path d="M534.28 427.92L536.96 429.59L525.32 448.29L522.64 446.62L527.52 438.78L505.27 424.92L507.15 421.9L529.4 435.76L534.28 427.92Z" fill="white"/>
<path d="M499.089 467.73L501.269 464.92C502.209 465.38 503.139 465.65 504.069 465.71C504.999 465.77 505.899 465.68 506.779 465.42C507.649 465.16 508.469 464.76 509.239 464.21C509.999 463.66 510.679 463.01 511.279 462.24C512.369 460.84 512.999 459.29 513.179 457.6C513.359 455.91 513.009 454.2 512.149 452.46C511.289 450.72 509.849 449.07 507.849 447.5C505.839 445.94 503.889 444.95 501.989 444.55C500.089 444.15 498.339 444.23 496.749 444.82C495.159 445.41 493.809 446.4 492.719 447.8C492.119 448.57 491.649 449.39 491.309 450.27C490.969 451.14 490.779 452.04 490.739 452.95C490.699 453.86 490.829 454.76 491.129 455.65C491.419 456.54 491.909 457.38 492.579 458.17L490.399 460.98C489.379 459.85 488.619 458.64 488.119 457.35C487.619 456.06 487.369 454.75 487.359 453.41C487.359 452.07 487.579 450.76 488.039 449.46C488.499 448.17 489.189 446.93 490.099 445.76C491.639 443.78 493.489 442.4 495.649 441.61C497.809 440.82 500.129 440.68 502.599 441.18C505.069 441.68 507.519 442.88 509.969 444.79C512.419 446.69 514.189 448.78 515.279 451.04C516.369 453.31 516.809 455.59 516.569 457.88C516.339 460.17 515.449 462.3 513.919 464.28C513.009 465.45 511.979 466.42 510.839 467.18C509.699 467.95 508.479 468.49 507.179 468.81C505.879 469.13 504.549 469.21 503.179 469.04C501.809 468.87 500.449 468.43 499.099 467.72L499.089 467.73Z" fill="white"/>
<path d="M479.85 459.03L500.89 479.53L498.41 482.08L489.04 472.95L478.11 484.17L487.48 493.3L485 495.85L463.96 475.35L466.44 472.8L475.85 481.97L486.78 470.75L477.37 461.58L479.85 459.03Z" fill="white"/>
<path d="M441.5 520.89C442.47 521.98 443.69 522.51 445.15 522.47C446.61 522.43 448.07 521.9 449.53 520.88C450.6 520.14 451.41 519.31 451.96 518.42C452.52 517.52 452.81 516.61 452.83 515.7C452.85 514.79 452.6 513.95 452.06 513.18C451.61 512.54 451.07 512.09 450.44 511.85C449.81 511.61 449.15 511.5 448.45 511.54C447.75 511.58 447.07 511.69 446.4 511.86C445.73 512.04 445.13 512.23 444.6 512.42L441.69 513.47C440.95 513.74 440.09 514 439.11 514.25C438.13 514.5 437.12 514.62 436.06 514.62C435 514.62 433.97 514.39 432.97 513.93C431.97 513.47 431.07 512.68 430.28 511.55C429.37 510.25 428.89 508.83 428.84 507.31C428.79 505.79 429.19 504.26 430.06 502.74C430.93 501.22 432.29 499.81 434.14 498.52C435.87 497.32 437.55 496.56 439.2 496.24C440.85 495.92 442.38 496.01 443.79 496.5C445.2 497 446.41 497.87 447.43 499.12L444.42 501.22C443.71 500.36 442.88 499.83 441.93 499.61C440.98 499.39 439.99 499.43 438.96 499.72C437.93 500.01 436.94 500.49 435.98 501.15C434.87 501.93 433.99 502.81 433.36 503.79C432.73 504.77 432.38 505.77 432.32 506.79C432.26 507.81 432.53 508.75 433.15 509.63C433.71 510.43 434.39 510.93 435.18 511.12C435.98 511.31 436.85 511.31 437.8 511.12C438.75 510.92 439.73 510.65 440.74 510.3L444.3 509.08C446.56 508.31 448.59 508.04 450.39 508.28C452.19 508.52 453.65 509.45 454.78 511.07C455.72 512.42 456.18 513.85 456.14 515.37C456.11 516.89 455.67 518.36 454.81 519.79C453.95 521.22 452.76 522.47 451.22 523.54C449.67 524.62 448.09 525.31 446.5 525.6C444.91 525.89 443.42 525.8 442.05 525.34C440.67 524.88 439.54 524.05 438.65 522.86L441.47 520.89H441.5Z" fill="white"/>
<path d="M421.399 507.77L435.569 533.5L432.459 535.22L426.149 523.76L412.429 531.32L418.739 542.78L415.619 544.5L401.449 518.78L404.559 517.06L410.899 528.56L424.619 521L418.279 509.49L421.399 507.77Z" fill="white"/>
<path d="M378.369 544.5C377.199 541.63 376.7 538.94 376.88 536.43C377.06 533.92 377.82 531.72 379.16 529.85C380.5 527.98 382.329 526.57 384.649 525.62C386.969 524.67 389.26 524.39 391.53 524.79C393.8 525.18 395.879 526.21 397.769 527.88C399.659 529.54 401.189 531.81 402.369 534.68C403.539 537.55 404.039 540.24 403.859 542.75C403.679 545.26 402.919 547.45 401.579 549.32C400.239 551.19 398.41 552.6 396.09 553.55C393.77 554.5 391.479 554.78 389.209 554.38C386.939 553.99 384.86 552.96 382.97 551.29C381.08 549.63 379.549 547.36 378.369 544.49V544.5ZM381.549 543.2C382.509 545.55 383.72 547.38 385.16 548.68C386.61 549.98 388.17 550.77 389.84 551.06C391.51 551.35 393.17 551.15 394.82 550.48C396.46 549.81 397.779 548.78 398.769 547.4C399.759 546.02 400.32 544.36 400.44 542.42C400.56 540.48 400.14 538.33 399.17 535.98C398.2 533.63 396.999 531.8 395.549 530.5C394.109 529.2 392.549 528.41 390.869 528.12C389.199 527.83 387.54 528.03 385.89 528.7C384.24 529.37 382.93 530.4 381.94 531.78C380.95 533.16 380.389 534.82 380.269 536.76C380.149 538.7 380.57 540.85 381.54 543.2H381.549Z" fill="white"/>
<path d="M362.93 534.03L378.18 560.39L374.68 561.31L362.65 539.74L362.37 539.81L362.42 564.54L358.54 565.56L346.4 544.02L346.12 544.09L346.28 568.79L342.79 569.71L343.07 539.26L346.62 538.33L358.85 559.31L359.07 559.25L359.38 534.96L362.93 534.03Z" fill="white"/>
<path d="M319.719 556.43L310.779 544.33L314.869 543.77L323.699 555.88L319.719 556.42V556.43ZM331.639 541.48L335.609 570.58L325.779 571.92C323.509 572.23 321.589 572.1 320.019 571.53C318.449 570.96 317.229 570.04 316.349 568.8C315.469 567.55 314.909 566.07 314.669 564.35C314.439 562.64 314.579 561.07 315.099 559.65C315.619 558.23 316.549 557.04 317.899 556.09C319.249 555.14 321.049 554.51 323.299 554.2L331.259 553.11L331.689 556.29L323.849 557.36C322.299 557.57 321.079 557.97 320.189 558.55C319.299 559.14 318.699 559.88 318.379 560.77C318.059 561.67 317.979 562.7 318.139 563.86C318.299 565.03 318.649 566.01 319.209 566.83C319.769 567.64 320.549 568.22 321.579 568.57C322.599 568.92 323.899 568.98 325.469 568.77L331.669 567.93L328.129 541.95L331.649 541.47L331.639 541.48Z" fill="white"/>
<path d="M306.679 544.54L307.889 573.89L290.179 574.62L290.049 571.47L304.209 570.88L303.799 560.96L290.559 561.51L290.429 558.36L303.669 557.81L303.259 547.84L288.869 548.43L288.739 545.28L306.679 544.54Z" fill="white"/>
<path d="M283.27 545.3L281.55 574.62L263.85 573.58L264.04 570.43L278.18 571.26L278.76 561.35L265.53 560.57L265.72 557.42L278.95 558.2L279.53 548.24L265.16 547.4L265.35 544.25L283.27 545.3Z" fill="white"/>
<path d="M109.949 474.82L94.5395 501.08L92.0195 498.49L104.849 477.39L104.649 477.19L83.1695 489.43L80.3595 486.56L93.1095 465.38L92.9095 465.17L71.4995 477.49L68.9795 474.9L95.6095 460.13L98.1695 462.76L85.9495 483.75L86.1095 483.91L107.389 472.2L109.949 474.83V474.82Z" fill="white"/>
<path d="M87.3099 450.37L89.5599 453.34L59.6399 462.51L57.4199 459.59L74.2999 433.24L76.5499 436.21L62.1599 458.15L62.2999 458.33L87.2999 450.37H87.3099ZM77.3399 456.21L68.2499 444.24L70.7599 442.33L79.8499 454.3L77.3399 456.21Z" fill="white"/>
<path d="M50.7296 444.99L48.0396 446.63L36.5596 427.83L39.2496 426.19L44.0596 434.07L66.4296 420.41L68.2796 423.44L45.9096 437.1L50.7196 444.98L50.7296 444.99Z" fill="white"/>
<path d="M30.9499 395.6L32.4699 398.81C31.6399 399.44 30.9799 400.15 30.4999 400.96C30.0199 401.76 29.6999 402.61 29.5399 403.51C29.3799 404.41 29.3699 405.32 29.5099 406.25C29.6499 407.18 29.9299 408.08 30.3499 408.96C31.1099 410.57 32.2099 411.83 33.6399 412.74C35.0699 413.65 36.7499 414.12 38.6999 414.14C40.6399 414.15 42.7599 413.62 45.0599 412.53C47.3599 411.44 49.1199 410.14 50.3299 408.62C51.5499 407.11 52.2499 405.51 52.4499 403.82C52.6499 402.13 52.3599 400.49 51.5999 398.88C51.1799 398 50.6599 397.21 50.0299 396.51C49.3999 395.81 48.6899 395.24 47.8899 394.8C47.0899 394.36 46.2299 394.07 45.2999 393.93C44.3699 393.79 43.4099 393.85 42.3999 394.09L40.8799 390.88C42.3499 390.48 43.7699 390.34 45.1499 390.47C46.5199 390.6 47.8099 390.96 49.0099 391.56C50.2099 392.16 51.2799 392.95 52.2299 393.95C53.1799 394.94 53.9699 396.11 54.5999 397.45C55.6699 399.71 56.0799 401.99 55.8099 404.27C55.5399 406.56 54.6299 408.69 53.0699 410.67C51.5099 412.65 49.3299 414.3 46.5299 415.63C43.7299 416.96 41.0699 417.6 38.5499 417.56C36.0299 417.52 33.7999 416.87 31.8599 415.64C29.9199 414.4 28.4099 412.65 27.3399 410.39C26.6999 409.05 26.2999 407.7 26.1299 406.34C25.9599 404.98 26.0199 403.64 26.3199 402.34C26.6199 401.04 27.1499 399.81 27.9099 398.67C28.6699 397.53 29.6799 396.51 30.9299 395.62L30.9499 395.6Z" fill="white"/>
<path d="M47.3897 382.35L19.6097 391.89L18.4597 388.53L30.8297 384.28L25.7497 369.47L13.3797 373.72L12.2197 370.36L39.9997 360.82L41.1497 364.18L28.7297 368.45L33.8197 383.26L46.2397 378.99L47.3997 382.35H47.3897Z" fill="white"/>
<path d="M9.43978 320.23C8.02978 320.61 7.00978 321.46 6.38978 322.78C5.76978 324.1 5.57978 325.65 5.83978 327.41C6.01978 328.7 6.38978 329.79 6.94978 330.69C7.49978 331.59 8.17978 332.26 8.98978 332.69C9.79978 333.12 10.6598 333.27 11.5898 333.14C12.3698 333.03 12.9998 332.75 13.5098 332.29C14.0098 331.84 14.3998 331.29 14.6798 330.65C14.9598 330.01 15.1698 329.35 15.3098 328.68C15.4498 328.01 15.5498 327.38 15.6198 326.83L15.9898 323.76C16.0798 322.97 16.2298 322.09 16.4498 321.11C16.6698 320.13 17.0198 319.17 17.4898 318.22C17.9698 317.28 18.6398 316.46 19.4898 315.77C20.3498 315.08 21.4598 314.63 22.8198 314.44C24.3898 314.22 25.8698 314.42 27.2598 315.06C28.6498 315.7 29.8198 316.75 30.7998 318.21C31.7798 319.67 32.4198 321.52 32.7398 323.75C33.0398 325.83 32.9598 327.68 32.4998 329.3C32.0498 330.92 31.2798 332.24 30.1998 333.28C29.1198 334.32 27.7998 335.01 26.2198 335.35L25.6998 331.72C26.7798 331.47 27.6398 330.97 28.2598 330.22C28.8798 329.47 29.2898 328.57 29.4998 327.52C29.6998 326.47 29.7198 325.37 29.5598 324.22C29.3698 322.88 28.9798 321.7 28.3798 320.69C27.7898 319.68 27.0498 318.92 26.1698 318.41C25.2898 317.9 24.3198 317.72 23.2598 317.87C22.2898 318.01 21.5498 318.39 21.0198 319.02C20.4898 319.65 20.0998 320.43 19.8498 321.36C19.5998 322.29 19.3998 323.29 19.2598 324.36L18.7498 328.08C18.4198 330.44 17.7498 332.38 16.7198 333.87C15.6998 335.37 14.2098 336.26 12.2498 336.54C10.6198 336.77 9.13978 336.54 7.78978 335.82C6.44978 335.11 5.32978 334.05 4.43978 332.65C3.54978 331.25 2.96978 329.62 2.70978 327.76C2.43978 325.89 2.53978 324.17 2.99978 322.62C3.45978 321.07 4.19978 319.78 5.23978 318.76C6.26978 317.74 7.51978 317.1 8.97978 316.84L9.46978 320.25L9.43978 320.23Z" fill="white"/>
<path d="M30.1998 308.22L0.849766 309.31L0.719766 305.76L13.7898 305.27L13.2098 289.62L0.139766 290.11L0.00976562 286.56L29.3598 285.47L29.4898 289.02L16.3598 289.51L16.9398 305.16L30.0698 304.67L30.1998 308.22Z" fill="white"/>
<path d="M16.7401 253.3C19.8301 253.54 22.4501 254.31 24.6201 255.6C26.7801 256.89 28.4001 258.56 29.4701 260.6C30.5401 262.64 30.9701 264.91 30.7801 267.41C30.5801 269.91 29.8001 272.08 28.4301 273.93C27.0601 275.78 25.2001 277.17 22.8701 278.11C20.5301 279.05 17.8201 279.4 14.7301 279.16C11.6401 278.92 9.02008 278.15 6.85008 276.86C4.69008 275.57 3.07008 273.9 2.00008 271.86C0.930082 269.82 0.500082 267.55 0.690082 265.05C0.880082 262.55 1.67008 260.38 3.04008 258.53C4.41008 256.68 6.27008 255.29 8.60008 254.35C10.9401 253.41 13.6501 253.06 16.7401 253.3ZM16.4801 256.73C13.9401 256.53 11.7701 256.79 9.96008 257.49C8.15008 258.2 6.74008 259.23 5.73008 260.6C4.72008 261.96 4.15008 263.53 4.01008 265.31C3.87008 267.08 4.19008 268.72 4.98008 270.23C5.76008 271.74 6.99008 272.98 8.67008 273.96C10.3501 274.94 12.4601 275.53 14.9901 275.73C17.5301 275.93 19.7001 275.67 21.5101 274.97C23.3201 274.26 24.7301 273.23 25.7401 271.86C26.7501 270.5 27.3201 268.93 27.4601 267.15C27.6001 265.38 27.2801 263.74 26.4901 262.23C25.7101 260.73 24.4801 259.48 22.8001 258.5C21.1201 257.52 19.0201 256.93 16.4801 256.73Z" fill="white"/>
<path d="M33.0494 244.18L2.64941 245.93L3.39941 242.39L28.0694 241.36L28.1294 241.08L6.02941 229.99L6.85941 226.06L31.5594 224.92L31.6194 224.64L9.49941 213.66L10.2494 210.12L37.3094 224.08L36.5494 227.67L12.3094 229.15L12.2594 229.37L33.8094 240.57L33.0494 244.16V244.18Z" fill="white"/>
<path d="M40.4695 212.91L12.6895 203.37L15.9095 193.98C16.6595 191.81 17.6395 190.15 18.8495 189.02C20.0595 187.89 21.4295 187.2 22.9395 186.97C24.4495 186.74 26.0295 186.91 27.6695 187.47C29.3095 188.03 30.6395 188.87 31.6795 189.97C32.7195 191.07 33.3595 192.44 33.5995 194.07C33.8395 195.7 33.5995 197.59 32.8595 199.74L30.2495 207.34L27.2095 206.3L29.7795 198.81C30.2895 197.33 30.4795 196.06 30.3595 195C30.2395 193.94 29.8495 193.07 29.1895 192.38C28.5295 191.69 27.6495 191.16 26.5295 190.78C25.4195 190.4 24.3695 190.27 23.3995 190.4C22.4295 190.53 21.5495 190.97 20.7795 191.73C20.0095 192.49 19.3695 193.62 18.8495 195.12L16.8195 201.03L41.6095 209.55L40.4495 212.91H40.4695ZM32.4795 195.55L47.3095 193L45.9695 196.91L31.1795 199.35L32.4795 195.55Z" fill="white"/>
<path d="M48.9797 189.21L22.2197 177.1L29.5297 160.95L32.3997 162.25L26.5597 175.16L35.5997 179.25L41.0697 167.18L43.9397 168.48L38.4697 180.55L47.5597 184.67L53.4997 171.55L56.3697 172.85L48.9597 189.21H48.9797Z" fill="white"/>
<path d="M58.9396 167.92L33.3896 153.43L42.1297 138.01L44.8696 139.57L37.8797 151.9L46.5096 156.8L53.0496 145.27L55.7896 146.83L49.2496 158.36L57.9296 163.28L65.0296 150.76L67.7696 152.32L58.9096 167.94L58.9396 167.92Z" fill="white"/>
<path d="M70.8196 147.61L46.6396 130.93L48.6596 128L70.2396 142.89L77.9896 131.65L80.5896 133.44L70.8196 147.61Z" fill="white"/>
<path fill-rule="evenodd" clip-rule="evenodd" d="M111.02 71.74C119.12 69.49 128.55 67.4 139.29 78.82C131.97 64.97 137 56.73 141.75 49.79C133.65 52.04 124.22 54.13 113.48 42.71C120.8 56.56 115.77 64.8 111.02 71.74Z" fill="white"/>
<path fill-rule="evenodd" clip-rule="evenodd" d="M561.49 294.29C563.34 286.09 565.95 276.79 581.08 272.72C565.41 272.63 560.53 264.29 556.66 256.83C554.81 265.03 552.2 274.33 537.07 278.4C552.74 278.49 557.62 286.83 561.49 294.29Z" fill="white"/>
<path fill-rule="evenodd" clip-rule="evenodd" d="M184.49 541.42C177.85 536.26 170.54 529.95 173.29 514.52C166.55 528.67 156.93 529.55 148.53 529.88C155.17 535.04 162.48 541.35 159.73 556.78C166.47 542.63 176.09 541.75 184.49 541.42Z" fill="white"/>
<path d="M257.47 544.49L253.71 573.62L250.18 573.17L253.54 547.17L240 545.42L240.4 542.29L257.47 544.49Z" fill="white"/>
</svg>
