<svg width="200" height="200" viewBox="0 0 200 200" fill="none" xmlns="http://www.w3.org/2000/svg">
<path d="M87.793 97.1123C92.2692 93.6187 95.1551 88.1786 95.1551 82.074C95.1551 71.5564 86.5987 63 76.0817 63H46.7986C44.7002 63 43 64.7008 43 66.7986V131.918C43 134.016 44.7002 135.717 46.7986 135.717H76.0817C87.7074 135.717 97.1654 126.259 97.1654 114.635C97.1654 107.339 93.4402 100.899 87.793 97.1123ZM76.0817 70.5972C82.4096 70.5972 87.558 75.746 87.558 82.074C87.558 88.4019 82.4096 93.5503 76.0817 93.5503H50.5972V70.5972H76.0817ZM76.0817 128.119H50.5972V101.147H76.0817C83.5183 101.147 89.5682 107.198 89.5682 114.634C89.5682 122.07 83.5183 128.119 76.0817 128.119Z" fill="white"/>
<path d="M129.699 80.0859C114.361 80.0859 101.883 92.5641 101.883 107.902C101.883 123.24 114.361 135.719 129.699 135.719C137.129 135.719 144.115 132.825 149.369 127.571C150.853 126.087 150.853 123.683 149.369 122.199C147.886 120.716 145.48 120.716 143.997 122.199C140.177 126.018 135.1 128.121 129.699 128.121C119.849 128.121 111.626 121.039 109.843 111.701H153.717C155.816 111.701 157.516 110 157.516 107.902C157.516 92.5641 145.037 80.0859 129.699 80.0859ZM129.699 87.6831C139.549 87.6831 147.772 94.7647 149.556 104.104H109.843C111.626 94.7647 119.849 87.6831 129.699 87.6831Z" fill="white"/>
<path d="M112.605 72.6089H144.763C146.861 72.6089 148.562 70.9081 148.562 68.8103C148.562 66.7125 146.861 65.0117 144.763 65.0117H112.605C110.507 65.0117 108.807 66.7125 108.807 68.8103C108.807 70.9081 110.507 72.6089 112.605 72.6089Z" fill="white"/>
</svg>
