<svg width="200" height="200" viewBox="0 0 200 200" fill="none" xmlns="http://www.w3.org/2000/svg">
<path d="M72.5547 52.6113C75.133 52.6113 77.556 53.6803 79.6016 55.6826C80.92 56.9041 82.2568 58.2593 83.5293 59.5703C84.1847 60.245 84.8183 60.8983 85.4902 61.5703L91.2314 67.3115C93.3906 69.4509 94.5459 71.955 94.5459 74.5254C94.5459 77.097 93.3708 79.5999 91.2334 81.7373C90.6356 82.3351 90.0404 82.9307 89.4648 83.5254L89.4639 83.5264C87.8885 85.1388 86.2513 86.7919 84.5088 88.3809C85.777 91.241 87.5776 94.0746 90.2422 97.4473H90.2412C95.6717 104.105 101.345 109.277 107.585 113.239L107.586 113.24C108.203 113.633 108.9 113.99 109.671 114.376C110.204 114.642 110.773 114.929 111.337 115.243L118.028 108.552C120.111 106.469 122.577 105.336 125.164 105.336C127.75 105.336 130.196 106.468 132.222 108.571L143.804 120.153C145.937 122.286 147.024 124.776 147.029 127.305C147.034 129.674 146.088 132.039 144.231 134.137L143.848 134.553C142.956 135.483 142.027 136.393 141.119 137.262C139.791 138.551 138.542 139.743 137.445 141.063C137.406 141.125 137.36 141.173 137.339 141.194C134.121 144.688 130.163 146.389 125.26 146.389C124.807 146.389 124.374 146.369 123.933 146.35H123.925C116.699 145.882 110.226 143.156 105.419 140.878L105.415 140.877C92.762 134.744 81.6763 126.076 72.4688 115.069V115.068C65.1288 106.249 60.1014 97.9628 56.7119 89.0869L56.3887 88.2266C54.179 82.2758 53.3156 77.3229 53.6875 72.6445V72.6426C54.0036 68.8697 55.5278 65.6041 58.2129 62.9189L65.4199 55.7119L65.4268 55.7061C67.5484 53.6835 69.9917 52.6114 72.5547 52.6113ZM72.5547 58.1094C71.4855 58.1095 70.3443 58.6104 69.2793 59.6387L62.1152 66.8027C60.3317 68.5863 59.3871 70.6384 59.1631 73.1094L59.1641 73.1104C58.8617 76.9084 59.5958 81.1083 61.5684 86.375L61.5693 86.377C64.75 94.9607 69.5612 102.978 76.7266 111.604L77.5469 112.572C86.0771 122.516 96.271 130.38 107.833 135.976L108.676 136.372C112.967 138.369 118.449 140.535 124.302 140.91H124.301C124.629 140.929 124.965 140.948 125.279 140.948C128.584 140.948 131.116 139.874 133.253 137.574C134.539 136.036 135.96 134.674 137.304 133.369L137.306 133.367C138.21 132.501 139.052 131.678 139.854 130.819L139.856 130.815C140.989 129.636 141.518 128.488 141.526 127.398C141.535 126.312 141.027 125.202 139.92 124.095L128.3 112.493L128.29 112.483C127.566 111.704 126.468 110.892 125.164 110.892C124.104 110.892 122.983 111.422 121.912 112.493L114.705 119.7C114.37 120.035 113.269 121.125 111.559 121.125C110.874 121.125 110.196 120.952 109.512 120.6V120.599C109.464 120.575 109.423 120.552 109.391 120.534C109.356 120.514 109.331 120.5 109.304 120.486L109.286 120.478L109.269 120.467C108.652 120.074 107.955 119.716 107.184 119.33L107.181 119.328C106.366 118.911 105.455 118.476 104.605 117.923C97.8594 113.639 91.7394 108.078 85.9355 100.92L85.9326 100.917C82.6981 96.8495 80.6151 93.4271 79.1143 89.8213L79.1094 89.8086L79.1045 89.7949C79.0989 89.7782 79.0938 89.7637 79.084 89.7393C79.0745 89.7156 79.0606 89.6817 79.0469 89.6406C78.847 89.0411 78.6682 88.3071 78.7676 87.498C78.8683 86.6789 79.2494 85.8199 80.1045 84.9648L80.209 84.8604L80.2178 84.8525C82.0559 83.225 83.7224 81.5205 85.5176 79.7061L85.5195 79.7041C85.8169 79.4068 86.1143 79.1044 86.4131 78.8008C86.7116 78.4975 87.0115 78.1926 87.3115 77.8926C88.4654 76.7387 89.0088 75.6174 89.0088 74.5635C89.0087 73.5097 88.4651 72.3891 87.3115 71.2354L81.5645 65.4883C81.2285 65.1427 80.8925 64.8016 80.5576 64.4619C80.223 64.1224 79.8893 63.7837 79.5605 63.4453V63.4443C78.2477 62.1121 77.0417 60.8689 75.7598 59.6826L75.7529 59.6768L75.7471 59.6699C74.7009 58.6054 73.5996 58.1094 72.5547 58.1094Z" fill="white" stroke="white" stroke-width="0.777073"/>
</svg>
