<svg width="200" height="200" viewBox="0 0 200 200" fill="none" xmlns="http://www.w3.org/2000/svg">
<path d="M125.686 139.995C126.089 139.995 144.336 139.991 143.937 139.991C145.558 139.991 146.874 138.675 146.874 137.054C145.503 106.282 154.088 73.8105 122.051 73.8105C115.891 73.8105 110.983 75.9137 107.447 78.6944C107.447 72.9724 101.263 76.1369 86.9872 75.2871C85.3658 75.2871 84.0499 76.603 84.0499 78.2244C85.2326 133.705 81.4102 139.991 86.9872 139.991H105.238C110.537 139.991 107.165 132.519 108.175 107.923C108.175 97.7637 111.113 95.7741 116.188 95.7741C121.805 95.7741 122.749 99.675 122.749 108.417C123.755 132.569 120.407 139.995 125.686 139.995ZM116.188 89.8994C98.5996 89.8994 102.301 109.239 102.301 134.116H89.9246V81.1618H101.572V86.2454C101.572 89.0652 105.869 90.4517 107.365 87.6161C109.292 83.9581 114.297 79.6853 122.051 79.6853C135.865 79.6853 140.999 86.4725 140.999 104.735V134.12H128.623C128.623 106.141 131.584 89.8994 116.188 89.8994Z" fill="white"/>
<path d="M57.2719 75.2914C51.7105 75.2914 55.5173 81.499 54.3345 137.058C54.3345 138.68 55.6505 139.995 57.2719 139.995H75.5423C81.1037 139.995 77.2968 133.788 78.4796 78.2287C78.4796 73.1569 71.1127 76.1491 57.2719 75.2914ZM72.6049 134.121H60.2093V81.1661H72.6049V134.121Z" fill="white"/>
<path d="M66.4003 46C48.4785 46 48.5881 73.1373 66.4003 73.1373C84.2006 73.1373 84.3416 46 66.4003 46ZM66.4003 67.2625C56.3427 67.2625 56.2487 51.8747 66.4003 51.8747C76.5713 51.8747 76.4421 67.2625 66.4003 67.2625Z" fill="white"/>
</svg>
