<svg width="200" height="200" viewBox="0 0 200 200" fill="none" xmlns="http://www.w3.org/2000/svg">
<path d="M143.216 58.4102C149.868 58.4104 155.28 63.823 155.28 70.4756V129.795C155.28 136.447 149.868 141.859 143.216 141.859H55.9814C49.3288 141.859 43.9161 136.447 43.916 129.795V70.4756C43.916 63.8229 49.3287 58.4102 55.9814 58.4102H143.216ZM108.711 105.055C106.153 106.76 102.873 107.61 99.5986 107.61C96.3229 107.61 93.0444 106.76 90.4863 105.055L50.5996 78.4639V129.795C50.5997 132.762 53.0139 135.176 55.9814 135.176H143.216C146.183 135.176 148.597 132.762 148.598 129.795V78.4629L108.711 105.055ZM55.9814 65.0938C53.028 65.0938 50.6234 67.4847 50.6006 70.4326L94.1934 99.4941C95.6279 100.45 97.6106 100.933 99.5986 100.933C101.587 100.933 103.569 100.451 105.004 99.4941L148.596 70.4326C148.573 67.4847 146.169 65.094 143.216 65.0938H55.9814Z" fill="white" stroke="white" stroke-width="0.167458"/>
</svg>
